<?xml version="1.0" standalone="no"?>
<!DOCTYPE svg PUBLIC "-//W3C//DTD SVG 1.1//EN" "http://www.w3.org/Graphics/SVG/1.1/DTD/svg11.dtd" >
<svg xmlns="http://www.w3.org/2000/svg" xmlns:xlink="http://www.w3.org/1999/xlink" version="1.1">
<metadata>
Created by FontForge 20170731 at Mon Mar 28 22:06:47 2022
 By Aleksey,,,
</metadata>
<defs>
<font id="ReciaSerifDisplay-Bold" horiz-adv-x="430" >
  <font-face 
    font-family="Recia Serif Display"
    font-weight="700"
    font-stretch="normal"
    units-per-em="1000"
    panose-1="0 0 0 0 0 0 0 0 0 0"
    ascent="750"
    descent="-250"
    x-height="500"
    cap-height="700"
    bbox="-167 -252 767 893"
    underline-thickness="50"
    underline-position="-175"
    unicode-range="U+000D-FB02"
  />
<missing-glyph horiz-adv-x="250" 
d="M0 17q0 16 17 16q16 0 16 -16q0 -17 -16 -17q-17 0 -17 17zM234 33q16 0 16 -16q0 -17 -16 -17q-17 0 -17 17q0 16 17 16zM0 484q0 16 17 16q16 0 16 -16q0 -17 -16 -17q-17 0 -17 17zM234 500q16 0 16 -16q0 -17 -16 -17q-17 0 -17 17q0 16 17 16z" />
    <glyph glyph-name=".notdef" horiz-adv-x="250" 
d="M0 17q0 16 17 16q16 0 16 -16q0 -17 -16 -17q-17 0 -17 17zM234 33q16 0 16 -16q0 -17 -16 -17q-17 0 -17 17q0 16 17 16zM0 484q0 16 17 16q16 0 16 -16q0 -17 -16 -17q-17 0 -17 17zM234 500q16 0 16 -16q0 -17 -16 -17q-17 0 -17 17q0 16 17 16z" />
    <glyph glyph-name=".null" horiz-adv-x="0" 
 />
    <glyph glyph-name=".null" horiz-adv-x="0" 
 />
    <glyph glyph-name="uni000D" unicode="&#xd;" horiz-adv-x="250" 
 />
    <glyph glyph-name="space" unicode=" " horiz-adv-x="150" 
 />
    <glyph glyph-name="exclam" unicode="!" horiz-adv-x="192" 
d="M22 700h150l-68 -500h-14zM22 70q0 34 20.5 54.5t54.5 20.5t54.5 -20.5t20.5 -54.5t-20.5 -54.5t-54.5 -20.5t-54.5 20.5t-20.5 54.5z" />
    <glyph glyph-name="quotedbl" unicode="&#x22;" horiz-adv-x="175" 
d="M175 700l-30 -200h-15l-30 200h75zM75 700l-30 -200h-15l-30 200h75z" />
    <glyph glyph-name="numbersign" unicode="#" horiz-adv-x="622" 
d="M22 226h142l79 235h-139v15h144l74 224h17l-74 -224h183l74 224h17l-74 -224h139v-15h-144l-79 -235h141v-15h-146l-73 -221h-17l73 221h-183l-73 -221h-17l73 221h-137v15zM364 226l79 235h-183l-79 -235h183z" />
    <glyph glyph-name="dollar" unicode="$" horiz-adv-x="385" 
d="M195 0v-50h-15v50h-180l30 195l108 -180h38h4v220q-14 23 -33 51t-43 62q-27 38 -44 67t-27.5 52.5t-14.5 42.5t-4 37q0 32 10.5 59.5t27.5 48.5t39.5 33t47.5 12h41v50h15v-50h118l10 -195l-108 180h-20v-168q9 -13 19 -26.5t22 -27.5l9 -11q39 -48 66 -85t43.5 -68
t23.5 -58.5t7 -55.5q0 -45 -16 -79.5t-40.5 -58t-54.5 -35.5t-59 -12h-20zM195 210v-190q15 7 28.5 25.5t13.5 48.5q0 22 -9.5 49t-32.5 67zM143 637q0 -40 37 -98v146h-3q-14 0 -24 -12.5t-10 -35.5z" />
    <glyph glyph-name="percent" unicode="%" horiz-adv-x="461" 
d="M114 700q50 0 78.5 -46.5t28.5 -128.5q0 -81 -28.5 -127.5t-78.5 -46.5q-49 0 -77.5 46.5t-28.5 128.5q0 81 28.5 127.5t77.5 46.5zM240 175q0 81 28.5 127.5t77.5 46.5q50 0 78.5 -46.5t28.5 -128.5q0 -81 -28.5 -127.5t-78.5 -46.5q-49 0 -77.5 46.5t-28.5 128.5z
M84 520q0 -55 3 -87.5t7.5 -49t10 -21t10.5 -4.5t10 4.5t9.5 21t7.5 49t3 87.5t-3 89t-7.5 52.5t-9.5 25t-10 6.5t-10.5 -6.5t-10 -25t-7.5 -52.5t-3 -89zM347 7q5 0 10 4.5t9.5 21t7.5 49t3 87.5t-3 89t-7.5 52.5t-9.5 25t-10 6.5t-10.5 -6.5t-10 -25t-7.5 -52.5t-3 -89
t3 -87.5t7.5 -49t10 -21t10.5 -4.5zM38 0l368 700h17l-368 -700h-17z" />
    <glyph glyph-name="ampersand" unicode="&#x26;" horiz-adv-x="575" 
d="M11 196q0 76 35.5 117.5t99.5 54.5q-45 13 -74.5 48.5t-33.5 105.5q0 50 14.5 84.5t39 56.5t56.5 32t67 10q62 0 107 -28.5t64 -78.5l-123 -74q0 32 -0.5 62t-5 53t-13 37t-25.5 14q-15 0 -23.5 -12t-12.5 -32t-4.5 -47.5t-0.5 -57.5q0 -37 5 -67.5t13 -53t17 -34.5
t18 -12h264l90 30v-75l-90 30h-30l1 -190q0 -39 -16 -71t-46 -55.5t-72.5 -36t-94.5 -12.5q-44 0 -85 10.5t-72.5 34.5t-50 62.5t-18.5 94.5zM247 9q26 0 40 13t20.5 35.5t7.5 51.5t1 60l-1 190h-91q-9 0 -19.5 -11t-20.5 -34.5t-16.5 -59.5t-6.5 -84q0 -31 3.5 -60
t13 -51.5t26.5 -36t43 -13.5z" />
    <glyph glyph-name="quotesingle" unicode="'" horiz-adv-x="75" 
d="M0 700h75l-30 -200h-15z" />
    <glyph glyph-name="parenleft" unicode="(" horiz-adv-x="287" 
d="M22 250q0 66 17 133.5t47.5 132t73 124.5t92.5 110h15q-24 -47 -43 -96.5t-33 -108t-21.5 -130.5t-7.5 -165q0 -155 28.5 -281t76.5 -219h-15q-106 106 -168 234t-62 266z" />
    <glyph glyph-name="parenright" unicode=")" horiz-adv-x="287" 
d="M22 -250q48 93 76.5 219t28.5 281q0 93 -7.5 165t-21.5 130.5t-33 108t-43 96.5h15q50 -50 92.5 -110t73 -124.5t47.5 -132t17 -133.5q0 -138 -62 -266t-168 -234h-15z" />
    <glyph glyph-name="asterisk" unicode="*" horiz-adv-x="330" 
d="M22 651l28 48l113 -94l-25 145h56l-25 -145l113 95l28 -49l-140 -51l140 -51l-28 -49l-113 94l25 -144h-56l25 145l-112 -94l-28 49l137 50z" />
    <glyph glyph-name="plus" unicode="+" horiz-adv-x="342" 
d="M22 259h142v143h17v-143h141v-15h-141v-142h-17v142h-142v15z" />
    <glyph glyph-name="comma" unicode="," horiz-adv-x="192" 
d="M172 75q0 -36 -10.5 -63t-28 -44.5t-40 -26t-46.5 -8.5v15q24 0 46 15.5t36 42.5q-13 -6 -32 -6q-34 0 -54.5 20.5t-20.5 54.5t20.5 54.5t54.5 20.5t54.5 -20.5t20.5 -54.5z" />
    <glyph glyph-name="hyphen" unicode="-" horiz-adv-x="342" 
d="M22 259h300v-15h-300v15z" />
    <glyph glyph-name="period" unicode="." horiz-adv-x="192" 
d="M22 70q0 34 20.5 54.5t54.5 20.5t54.5 -20.5t20.5 -54.5t-20.5 -54.5t-54.5 -20.5t-54.5 20.5t-20.5 54.5z" />
    <glyph glyph-name="slash" unicode="/" horiz-adv-x="295" 
d="M258 700h17l-236 -710h-17z" />
    <glyph glyph-name="zero" unicode="0" horiz-adv-x="448" 
d="M225 705q49 0 88.5 -24.5t67 -70.5t42.5 -112t15 -149q0 -82 -14.5 -147t-42.5 -111t-67 -70.5t-89 -24.5q-49 0 -88.5 24.5t-67 70.5t-42 112t-14.5 149q0 82 14.5 147.5t42 111t67 70t88.5 24.5zM164 338q0 -112 6 -177t15.5 -98.5t20.5 -43t20 -9.5t19.5 9.5t20 43
t15.5 98.5t6 177t-6 181t-15.5 107t-20 51t-19.5 13t-20 -13t-20.5 -51t-15.5 -107t-6 -181z" />
    <glyph glyph-name="one" unicode="1" horiz-adv-x="263" 
d="M13 559v15l210 126v-610l30 -90h-210l30 90v505z" />
    <glyph glyph-name="two" unicode="2" horiz-adv-x="408" 
d="M55 90q20 44 52.5 91t64 99.5t54 112.5t22.5 129q0 20 -2 48.5t-7.5 55t-14.5 45.5t-23 19q-13 0 -20.5 -18.5t-11 -46.5t-4.5 -61.5t-1 -63.5l-148 89q13 24 35 45t50 37t59.5 25t63.5 10q41 1 73 -13t54.5 -38t34.5 -57.5t12 -71.5q0 -47 -19 -88.5t-48.5 -79.5
t-66.5 -72.5t-73 -67t-68 -63.5t-51 -62l326 57l-10 -150h-375z" />
    <glyph glyph-name="three" unicode="3" horiz-adv-x="418" 
d="M163 173q0 -32 0.5 -61.5t4.5 -52t12.5 -36t24.5 -13.5t26.5 18t16.5 45t8 57.5t2 55.5q0 85 -17.5 129t-35.5 45h-42v15h42q18 1 30.5 40.5t12.5 115.5q0 33 -0.5 61.5t-4.5 50.5t-12.5 34.5t-23.5 12.5q-16 0 -25 -14t-13.5 -37t-5 -53t-0.5 -62l-123 74q19 50 64 78.5
t108 28.5q35 0 66.5 -10t56 -31.5t39 -56t14.5 -84.5q-4 -71 -34.5 -106.5t-77.5 -48.5q63 -14 97.5 -56t34.5 -120q0 -54 -16.5 -92t-43.5 -61t-62.5 -33.5t-74.5 -10.5q-45 0 -81.5 13t-62.5 36.5t-40 56t-14 72.5h150z" />
    <glyph glyph-name="four" unicode="4" horiz-adv-x="440" 
d="M150 588l189 112l-168 -511h47v51l150 90v-141h62v-15h-62v-82l30 -92h-210l30 91v83h-205z" />
    <glyph glyph-name="five" unicode="5" horiz-adv-x="418" 
d="M163 173q0 -34 0.5 -64t4.5 -52t12.5 -34.5t24.5 -12.5t26.5 12.5t16.5 35t8 53.5t2 68q0 102 -18 146.5t-60 44.5q-17 0 -40.5 -6t-51.5 -16h-15l30 352h265l-10 -120h-250l-19 -222q26 16 51 25.5t67 10.5q94 1 147.5 -51t53.5 -152q0 -54 -16.5 -91.5t-43.5 -60.5
t-62.5 -33.5t-74.5 -10.5q-45 0 -81.5 13t-62.5 36.5t-40 56t-14 72.5h150z" />
    <glyph glyph-name="six" unicode="6" horiz-adv-x="428" 
d="M330 707v-15q-39 -7 -69 -27.5t-50 -60.5t-30.5 -102.5t-9.5 -154.5q0 5 3 16.5t12 23t25.5 20.5t43.5 10q27 0 55.5 -10t52 -33t39 -60.5t16.5 -91.5q1 -55 -14.5 -97t-44 -70.5t-67 -43.5t-82.5 -16q-45 -1 -81 14.5t-61 51t-39 92.5t-16 139q-2 68 12 124.5t39 102.5
t58 81t69 58.5t72 35.5t67 13zM172 171q0 -27 1.5 -55.5t6.5 -52t14.5 -38.5t25.5 -15t25.5 16.5t15 46t7 70t0.5 89.5q-1 33 -3 60.5t-7 47t-14.5 30t-25.5 10.5t-25.5 -12.5t-14 -38t-6 -64.5t-0.5 -94z" />
    <glyph glyph-name="seven" unicode="7" horiz-adv-x="408" 
d="M23 700h375l-158 -610l30 -90h-208l177 685h-100l-126 -75z" />
    <glyph glyph-name="eight" unicode="8" horiz-adv-x="418" 
d="M115 318q-36 36 -61.5 81.5t-25.5 109.5q0 45 14 81.5t38.5 62t57.5 39t72 13.5q36 0 69 -7t58 -25t40 -48.5t15 -77.5q0 -31 -6.5 -53t-19.5 -38.5t-30.5 -29.5t-40.5 -26q23 -18 43.5 -39t36 -46t24.5 -54.5t9 -65.5q0 -46 -15.5 -83t-42 -63t-63 -40t-78.5 -14
q-39 0 -74.5 7.5t-62.5 26.5t-43 52t-16 83q0 34 7.5 58t21 42t32.5 30.5t41 23.5zM246 439l29 -23q16 22 23 48.5t7 55.5q0 31 -7.5 61.5t-20 54.5t-30 39t-37.5 15q-19 -1 -32.5 -10.5t-22.5 -24t-13 -31t-4 -33.5q0 -25 9 -45.5t24 -38.5t34.5 -34.5t40.5 -33.5zM216 10
q16 0 28 9t20.5 23.5t13 31.5t4.5 33q0 24 -9 44.5t-24 39t-34.5 36.5t-40.5 37l-35 31q-21 -39 -21 -97q0 -33 7.5 -66.5t20.5 -60.5t31 -44t39 -17z" />
    <glyph glyph-name="nine" unicode="9" horiz-adv-x="428" 
d="M221 705q45 1 81 -14.5t61 -50.5t39 -92t16 -140q2 -67 -12 -124t-39 -103t-58 -81t-69 -58.5t-72 -36t-67 -12.5v15q39 7 69 27.5t50.5 60.5t30.5 102.5t9 154.5q0 -5 -3 -16.5t-12 -23t-25.5 -20.5t-43.5 -10q-27 0 -55.5 10t-52 33t-39 60.5t-16.5 91.5q-1 55 14.5 97
t44 70.5t67 43.5t82.5 16zM163 469q1 -33 3 -61t7 -47.5t14.5 -30t25.5 -10.5t25.5 12.5t14 38t6 64.5t0.5 93q0 27 -1.5 55.5t-6.5 52.5t-14.5 39t-25.5 15t-25.5 -17t-15 -46t-7 -69.5t-0.5 -88.5z" />
    <glyph glyph-name="colon" unicode=":" horiz-adv-x="192" 
d="M22 70q0 34 20.5 54.5t54.5 20.5t54.5 -20.5t20.5 -54.5t-20.5 -54.5t-54.5 -20.5t-54.5 20.5t-20.5 54.5zM22 415q0 34 20.5 54.5t54.5 20.5t54.5 -20.5t20.5 -54.5t-20.5 -54.5t-54.5 -20.5t-54.5 20.5t-20.5 54.5z" />
    <glyph glyph-name="semicolon" unicode=";" horiz-adv-x="192" 
d="M172 75q0 -36 -10.5 -63t-28 -44.5t-40 -26t-46.5 -8.5v15q24 0 46 15.5t36 42.5q-13 -6 -32 -6q-34 0 -54.5 20.5t-20.5 54.5t20.5 54.5t54.5 20.5t54.5 -20.5t20.5 -54.5zM22 415q0 34 20.5 54.5t54.5 20.5t54.5 -20.5t20.5 -54.5t-20.5 -54.5t-54.5 -20.5t-54.5 20.5
t-20.5 54.5z" />
    <glyph glyph-name="less" unicode="&#x3c;" horiz-adv-x="417" 
d="M397 47v-18l-375 225v21l375 225v-18l-362 -217z" />
    <glyph glyph-name="equal" unicode="=" horiz-adv-x="342" 
d="M22 339h300v-15h-300v15zM322 179v-15h-300v15h300z" />
    <glyph glyph-name="greater" unicode="&#x3e;" horiz-adv-x="417" 
d="M22 29v18l363 218l-363 217v18l375 -225v-21z" />
    <glyph glyph-name="question" unicode="?" horiz-adv-x="354" 
d="M-20 589q26 48 75 82.5t120 34.5q32 0 64 -8t57.5 -26t41.5 -47t16 -70q0 -33 -10 -60.5t-25.5 -51.5t-34.5 -45.5t-38 -41.5q-32 -32 -55 -63.5t-23 -66.5q0 -14 4 -26h-14q-17 22 -24 43t-7 43q0 10 1.5 20t5 23t9.5 29.5t15 38.5q17 39 31.5 84t14.5 102q0 6 -0.5 23
t-4 36t-11 33.5t-20.5 14.5q-14 0 -22 -18.5t-12 -46.5t-5 -61.5t-1 -63.5zM92 68q0 35 20.5 56t53.5 21q34 0 55 -21t21 -56t-21 -56.5t-55 -21.5q-33 0 -53.5 21.5t-20.5 56.5z" />
    <glyph glyph-name="at" unicode="@" horiz-adv-x="592" 
d="M296 593q58 0 110 -18.5t91.5 -57.5t63 -99t23.5 -143q0 -51 -8.5 -95.5t-23 -80t-32.5 -61t-37 -38.5h-120l-30 85q-22 -35 -50 -60t-72 -25q-16 0 -34 5t-33.5 16t-25.5 29.5t-10 46.5q0 27 10 50t27 42.5t40 34t50 23.5l98 33v166q0 20 -11 28.5t-23 8.5
q-15 0 -24.5 -11t-15.5 -30.5t-8.5 -45.5t-2.5 -55l-118 71q14 26 36 43t47.5 27t54 14t56.5 4t56.5 -8.5t51 -31t37 -61t14.5 -98.5v-285q14 11 29 34t28 56t21 75t8 91q0 79 -22 136t-59.5 94.5t-87 55.5t-104.5 18t-105 -18.5t-87.5 -58.5t-59.5 -103t-22 -153t22 -153
t59.5 -102.5t87 -58t104.5 -18.5q40 0 76 9.5t67 29.5l5 -18q-32 -20 -69 -29.5t-78 -9.5q-58 0 -110.5 19t-92 61.5t-62.5 109t-23 160.5q0 95 23 161.5t62.5 108.5t92 61t110.5 19zM292 73q12 0 22.5 8.5t18.5 18.5v165q-19 -8 -33 -22t-23.5 -31.5t-14 -37t-4.5 -37.5
q0 -9 1.5 -20t5 -21t10.5 -16.5t17 -6.5z" />
    <glyph glyph-name="A" unicode="A" horiz-adv-x="486" 
d="M0 0l50 90l106 553l-19 57h184l115 -610l50 -90h-214l10 90l-46 242l-137 -82l-30 -160l10 -90h-79zM103 269l131 78l-58 305z" />
    <glyph glyph-name="B" unicode="B" horiz-adv-x="458" 
d="M202 15q36 7 55.5 32t28.5 54q10 33 12 73q-1 44 -12 80q-9 32 -28.5 60t-55.5 36v-335zM202 365q28 6 44 26.5t24.5 45t11 47.5t2.5 34q0 4 -1.5 28t-9 52.5t-24.5 54t-47 32.5v-320zM270 359q38 -7 70.5 -22t56.5 -38.5t37.5 -54.5t13.5 -70q0 -86 -66 -130t-180 -44
h-180l30 90v520l-30 90h180q43 0 82 -15.5t68.5 -40.5t47 -58t17.5 -68q0 -28 -11 -53t-30.5 -46t-46.5 -36.5t-59 -23.5z" />
    <glyph glyph-name="C" unicode="C" horiz-adv-x="438" 
d="M11 336q0 81 17 149t47.5 116.5t74.5 76t98 27.5q58 0 102 -34.5t73 -109.5l-148 -56l10 73q-11 47 -27.5 78t-33.5 31q-12 0 -22 -17t-17 -45t-10.5 -63t-3.5 -70q0 -115 14.5 -194t37.5 -128t51 -70.5t56 -21.5q9 0 24.5 2.5t29.5 9t24.5 17.5t10.5 28h15
q0 -33 -20 -59t-49.5 -44t-64 -27.5t-63.5 -9.5q-40 0 -80.5 19t-72.5 60t-52.5 105.5t-20.5 156.5z" />
    <glyph glyph-name="D" unicode="D" horiz-adv-x="469" 
d="M202 15q32 0 51 20t29 61t13 104t3 150t-3 150t-13 104t-29 61t-51 20v-670zM202 700q132 0 194 -83.5t62 -263.5q0 -181 -63.5 -267t-192.5 -86h-180l30 90v520l-30 90h180z" />
    <glyph glyph-name="E" unicode="E" horiz-adv-x="416" 
d="M22 0l30 90v138.5t0.5 121.5t0.5 121.5v138.5l-26 90h356v-127l-180 108v-162t-1 -162h40l90 30v-75l-90 30h-40v-161t1 -161l197 118v-138h-378z" />
    <glyph glyph-name="F" unicode="F" horiz-adv-x="395" 
d="M52 90v138.5t0.5 121.5t0.5 121.5v138.5l-26 90h356v-127l-180 108v-324h39l90 30v-75l-90 30h-39v-252l30 -90h-211z" />
    <glyph glyph-name="G" unicode="G" horiz-adv-x="462" 
d="M11 331q0 83 17.5 151.5t49 118t77 77t100.5 27.5q59 0 104 -35t74 -109l-158 -56l10 71q0 23 -6 44.5t-15.5 37t-20.5 24t-21 5.5q-23 -8 -37 -71t-14 -164q0 -103 15.5 -180t40.5 -127.5t56.5 -75.5t63.5 -25q11 0 23 6.5t22.5 16t20 20t16.5 18.5l-154 257h169v-257
q-32 -56 -77.5 -83t-102.5 -27q-39 0 -83.5 21t-82 63t-62.5 105t-25 147z" />
    <glyph glyph-name="H" unicode="H" horiz-adv-x="487" 
d="M52 90v520l-30 90h210l-30 -90v-253h85v253l-30 90h210l-30 -90v-520l30 -90h-210l30 90v252h-85v-252l30 -90h-210z" />
    <glyph glyph-name="I" unicode="I" horiz-adv-x="241" 
d="M42 90v520l-26 90h200l-24 -90v-520l29 -90h-210z" />
    <glyph glyph-name="J" unicode="J" horiz-adv-x="365" 
d="M-28 86l117 71q0 -29 2.5 -55t8 -45.5t14.5 -30.5t22 -11t20 11t10.5 30t4 43t0.5 51v460l-26 90h200l-24 -90v-460q0 -18 -8 -43.5t-26 -49.5t-46.5 -40.5t-69.5 -16.5h-37q-114 0 -162 86z" />
    <glyph glyph-name="K" unicode="K" horiz-adv-x="487" 
d="M52 90v520l-26 90h200l-24 -90v-212l152 212l34 90h79l-94 -90l-70 -98l144 -422l50 -90h-240l30 90l-85 281v-281l30 -90h-210z" />
    <glyph glyph-name="L" unicode="L" horiz-adv-x="411" 
d="M52 90v520l-30 90h210l-30 -90v-594h85l124 74v-90h-389z" />
    <glyph glyph-name="M" unicode="M" horiz-adv-x="667" 
d="M10 700h180l145 -655l119 655h183l-30 -90l2 -520l30 -90h-212l31 90l-1 523l-112 -613h-156l-132 596l1 -506l29 -90h-77l30 90v520z" />
    <glyph glyph-name="N" unicode="N" horiz-adv-x="478" 
d="M18 700h171l226 -575l-1 485l-30 90h79l-30 -90v-520l24 -73l7 -17h-161l-238 606l1 -516l29 -90h-77l30 90v520z" />
    <glyph glyph-name="O" unicode="O" horiz-adv-x="447" 
d="M224 705q49 0 88.5 -24.5t67 -70t42 -111t14.5 -147.5q0 -83 -14.5 -149t-42 -112t-66.5 -70.5t-89 -24.5q-49 0 -88.5 24.5t-67.5 70.5t-42.5 112t-14.5 149q0 82 14.5 147.5t42.5 111t67.5 70t88.5 24.5zM144 268q22 -51 48 -88.5t51.5 -62.5t48 -37.5t37.5 -12.5
q8 0 15 5q20 16 27 51.5t2 83.5t-21.5 105.5t-44.5 117.5q-23 51 -50.5 88t-53.5 61.5t-49.5 36.5t-38.5 12q-9 0 -16 -5q-18 -15 -24 -47.5t0 -79t23.5 -105t45.5 -123.5z" />
    <glyph glyph-name="P" unicode="P" horiz-adv-x="427" 
d="M202 333q32 -4 49 11t25 40t9.5 56.5t1.5 59.5q0 32 -1.5 62t-9.5 55t-25 42.5t-49 25.5v-352zM202 700q47 0 89.5 -13t75 -38t51.5 -62.5t19 -86.5q0 -36 -15 -69.5t-40.5 -59.5t-60.5 -42t-76 -16q-11 0 -21.5 1.5t-21.5 3.5v-228l30 -90h-210l30 90v520l-30 90h180z
" />
    <glyph glyph-name="Q" unicode="Q" horiz-adv-x="450" 
d="M11 354q0 82 14.5 147t42.5 110.5t67.5 69.5t88.5 24t88.5 -24.5t67 -70t42 -110.5t14.5 -146q0 -114 -27 -194.5t-78 -122.5q21 -14 49 -25t56.5 -19t53.5 -12t40 -4v-152q-33 0 -68.5 15t-67 41t-55 62t-32.5 78q-37 -21 -83 -21q-49 0 -88.5 24.5t-67.5 70.5
t-42.5 111.5t-14.5 147.5zM144 268q22 -51 48 -88.5t51.5 -62.5t48 -37.5t37.5 -12.5q8 0 15 5q20 16 27 51.5t2 83.5t-21.5 105.5t-44.5 117.5q-23 51 -50.5 88t-53.5 61.5t-49.5 36.5t-38.5 12q-9 0 -16 -5q-18 -15 -24 -47.5t0 -79t23.5 -105t45.5 -123.5z" />
    <glyph glyph-name="R" unicode="R" horiz-adv-x="488" 
d="M202 335q36 -4 55 10.5t28 39.5t10.5 56t1.5 59q0 32 -1.5 62t-10.5 55t-28 42.5t-55 25.5v-350zM288 90l-63 226q-5 1 -11 1.5t-12 2.5v-230l30 -90h-210l30 90v520l-30 90h180q49 0 93.5 -13t78 -38t53.5 -62.5t20 -86.5q0 -45 -23.5 -85t-63.5 -66l88 -259l50 -90
h-240z" />
    <glyph glyph-name="S" unicode="S" horiz-adv-x="385" 
d="M30 195l108 -180h38q9 0 19.5 5t19.5 14.5t15.5 24.5t6.5 35q0 18 -6.5 40t-22 52t-41 69.5t-63.5 92.5q-27 38 -44 67t-27.5 52.5t-14.5 42.5t-4 37q0 32 10.5 59.5t27.5 48.5t39.5 33t47.5 12h174l10 -195l-108 180h-38q-14 0 -24 -12.5t-10 -35.5q0 -32 22.5 -74
t70.5 -100l9 -11q39 -48 66 -85t43.5 -68t23.5 -58.5t7 -55.5q0 -45 -16 -79.5t-40.5 -58t-54.5 -35.5t-59 -12h-215z" />
    <glyph glyph-name="T" unicode="T" horiz-adv-x="434" 
d="M-5 700h444l-30 -80l-117 64v-594l30 -90h-210l30 90v594l-117 -64q-9 23 -15 40t-15 40z" />
    <glyph glyph-name="U" unicode="U" horiz-adv-x="470" 
d="M15 700h210l-30 -91v-463q0 -17 5.5 -39t18 -41.5t32.5 -32.5t49 -13q15 0 34.5 5t37 19t29 38.5t11.5 63.5v463l-30 91h78l-30 -91v-463q0 -151 -190 -151q-42 0 -78 14t-62 36t-40.5 49t-14.5 52v463z" />
    <glyph glyph-name="V" unicode="V" horiz-adv-x="458" 
d="M0 700h212l-30 -90l108 -563l110 563l-13 90h78l-47 -90l-108 -554l19 -56h-182l-117 610z" />
    <glyph glyph-name="W" unicode="W" horiz-adv-x="757" 
d="M0 700h212l-30 -90l109 -566l75 389l-34 177l-30 90h212l-30 -90l109 -566l109 566l-13 90h78l-47 -90l-107 -554l19 -56h-183l-74 387l-64 -333l18 -54h-212l19 57l-106 553z" />
    <glyph glyph-name="X" unicode="X" horiz-adv-x="476" 
d="M0 0l80 90l91 216l-157 394h225l-30 -90l83 -203l86 203l-30 90h128l-79 -90l-95 -226l157 -384h-232l30 90l-77 193l-81 -193l30 -90h-129z" />
    <glyph glyph-name="Y" unicode="Y" horiz-adv-x="443" 
d="M0 700h223l-30 -90l95 -273l94 273l-13 90h79l-47 -90l-104 -300v-220l30 -90h-210l30 90v220z" />
    <glyph glyph-name="Z" unicode="Z" horiz-adv-x="395" 
d="M227 685h-96l-126 -75l10 90h375l-222 -685h96l126 75v-90h-385z" />
    <glyph glyph-name="bracketleft" unicode="[" horiz-adv-x="177" 
d="M22 -250v1000h135v-15h-60v-970h60v-15h-135z" />
    <glyph glyph-name="backslash" unicode="\" horiz-adv-x="295" 
d="M258 -10l-236 710h17l236 -710h-17z" />
    <glyph glyph-name="bracketright" unicode="]" horiz-adv-x="177" 
d="M157 750v-1000h-135v15h60v970h-60v15h135z" />
    <glyph glyph-name="asciicircum" unicode="^" horiz-adv-x="329" 
d="M22 507v10l144 233l143 -240v-10l-143 150z" />
    <glyph glyph-name="underscore" unicode="_" horiz-adv-x="402" 
d="M22 -40h360v-15h-360v15z" />
    <glyph glyph-name="grave" unicode="`" horiz-adv-x="232" 
d="M162 750q13 -39 24 -69q5 -13 9 -26t8 -23t6.5 -16.5t2.5 -7.5h-15l-175 142h140z" />
    <glyph glyph-name="a" unicode="a" horiz-adv-x="415" 
d="M0 94q0 27 10 50.5t27 43t40 34.5t50 24l98 34v170q0 20 -11 29t-23 9q-15 0 -24.5 -11.5t-15.5 -31.5t-8.5 -47t-2.5 -57l-118 71q14 27 36 45t47.5 28.5t54 15t56.5 4.5t56.5 -8.5t51 -31t37 -61.5t14.5 -100v-213l30 -91h-180v85q-22 -37 -50 -63.5t-72 -26.5
q-16 0 -34 5t-33.5 16t-25.5 30.5t-10 47.5zM184 73q12 0 22.5 8.5t18.5 18.5v165q-19 -8 -33 -22t-23.5 -32t-14 -38t-4.5 -40q0 -7 1.5 -17.5t5 -20t10.5 -16t17 -6.5z" />
    <glyph glyph-name="b" unicode="b" 
d="M10 645l174 105v-331q29 43 49.5 64.5t45.5 21.5q23 0 47.5 -16.5t45 -48.5t34 -80t13.5 -111q0 -62 -12 -109.5t-31.5 -79.5t-44.5 -48.5t-51 -16.5q-18 0 -34 9.5t-28.5 23.5t-21.5 29.5t-14 27.5l-28 -85h-130l10 90v481zM269 250q0 48 -3.5 80.5t-9.5 52t-14.5 27.5
t-19.5 8q-8 0 -17.5 -4.5t-20.5 -12.5v-302q24 -18 40 -18q24 0 34.5 40.5t10.5 128.5z" />
    <glyph glyph-name="c" unicode="c" horiz-adv-x="382" 
d="M206 505q57 0 98 -23t64 -68l-117 -71q-1 30 -3.5 57t-7.5 47t-14 31.5t-22 11.5q-18 0 -27.5 -21.5t-14 -55.5t-5 -76t-0.5 -83q0 -26 4 -61.5t16 -67.5t33.5 -54.5t57.5 -22.5q22 0 49 10t50 36h15q-13 -29 -36.5 -48t-50 -30.5t-53.5 -16t-49 -4.5q-35 0 -68.5 15.5
t-59.5 47.5t-42 80.5t-16 114.5q0 125 50 188.5t149 63.5z" />
    <glyph glyph-name="d" unicode="d" horiz-adv-x="435" 
d="M8 249q0 63 13.5 111t34 80t45 48.5t47.5 16.5q26 0 51 -26.5t46 -62.5v155l-24 74l174 105v-660l30 -90h-180v85q-5 -12 -14 -27.5t-21.5 -29.5t-28.5 -23.5t-34 -9.5q-26 0 -51 16.5t-44.5 48.5t-31.5 79.5t-12 109.5zM158 250q0 -89 10.5 -129t34.5 -40q15 0 42 19
v300q-11 8 -21 13t-19 5q-10 0 -19 -8t-15 -27.5t-9.5 -52t-3.5 -80.5z" />
    <glyph glyph-name="e" unicode="e" horiz-adv-x="392" 
d="M195 505q92 0 140 -65t48 -190h-225q0 -25 4.5 -60t16.5 -66.5t33.5 -53.5t55.5 -22q20 0 43.5 9t46.5 33h15q-13 -29 -36 -47.5t-48.5 -29t-52 -14.5t-47.5 -4q-34 0 -66.5 15.5t-58 47.5t-41 80.5t-15.5 114.5q0 125 47 188.5t140 63.5zM233 266q0 41 -1 81t-4.5 71.5
t-11 51.5t-21.5 20q-13 0 -20.5 -20t-11.5 -52t-4.5 -72t-0.5 -80h75z" />
    <glyph glyph-name="f" unicode="f" horiz-adv-x="265" 
d="M200 465v-375l30 -90h-210l30 90v375h-40v15h40v20q0 65 13.5 112t38 78t59.5 45.5t77 14.5q88 0 137 -62l-102 -62q-1 22 -3.5 41.5t-6.5 34.5t-10 24t-15 9q-16 0 -24 -27t-11 -64.5t-3 -77.5v-66v-20h75v-15h-75z" />
    <glyph glyph-name="g" unicode="g" horiz-adv-x="375" 
d="M0 -157q0 20 8.5 36t22.5 27t31.5 17t35.5 6q-19 4 -37 11t-31.5 18t-21.5 26.5t-8 37.5q0 42 27.5 69.5t68.5 27.5h7q-32 26 -50.5 72t-18.5 107q0 47 11 85t31 65t48.5 42t63.5 15q66 0 108 -53l79 48v-90h-55q21 -46 21 -112q0 -47 -11 -85.5t-31 -65.5t-48 -42
t-63 -15q-46 0 -80 25q-9 -11 -9 -23q0 -13 8.5 -20t20.5 -10.5t24.5 -4.5t20.5 -1q33 0 69 -7.5t65.5 -25t48.5 -45.5t19 -68q0 -42 -20.5 -71.5t-52 -49t-70 -28.5t-74.5 -9q-22 0 -49.5 4t-51.5 14t-40.5 27.5t-16.5 45.5zM265 139q16 0 19 12t3 19q0 19 -4.5 39
t-11.5 39.5t-15.5 37t-17.5 31.5t-24.5 35.5t-34 42t-37.5 35t-34 14.5q-14 0 -17 -11.5t-3 -16.5q0 -18 9 -45.5t23.5 -58.5t33 -62t38 -55.5t39 -40t34.5 -15.5zM249 -199q45 0 65.5 11t21.5 33q0 20 -12 31.5t-30 18.5t-37.5 10t-33.5 6q-33 6 -58.5 9.5t-54.5 6.5
q-9 -10 -13.5 -19t-4.5 -21q0 -23 14 -39t36 -26.5t50.5 -15.5t56.5 -5z" />
    <glyph glyph-name="h" unicode="h" horiz-adv-x="458" 
d="M13 0l30 90v481l-24 74l174 105v-330q20 34 50.5 59.5t64.5 25.5q24 0 44 -10.5t35 -34t23 -62t8 -94.5v-213l30 -91h-210l30 90v211q0 59 -10.5 84t-32.5 25q-14 0 -32 -9v-311l30 -90h-210z" />
    <glyph glyph-name="i" unicode="i" horiz-adv-x="233" 
d="M43 90v231l-24 74l174 105v-410l30 -90h-210zM38 596q0 33 23 56t56 23t56 -23t23 -56t-23 -56t-56 -23t-56 23t-23 56z" />
    <glyph glyph-name="j" unicode="j" horiz-adv-x="200" 
d="M-167 -164l117 71q0 -29 2.5 -55t8 -45.5t14.5 -30.5t22 -11t20 11t10.5 30t4 43t0.5 51v421l-24 74l174 105v-600q0 -18 -8 -43.5t-26 -49.5t-46.5 -40.5t-69.5 -16.5h-37q-114 0 -162 86zM27 596q0 33 23 56t56 23t56 -23t23 -56t-23 -56t-56 -23t-56 23t-23 56z" />
    <glyph glyph-name="k" unicode="k" horiz-adv-x="470" 
d="M43 90v481l-24 74l174 105v-538l142 198l34 90h79l-94 -90l-57 -79l183 -331h-242l30 90l-61 115l-14 -20v-95l30 -90h-210z" />
    <glyph glyph-name="l" unicode="l" horiz-adv-x="233" 
d="M43 90v481l-24 74l174 105v-660l30 -90h-210z" />
    <glyph glyph-name="m" unicode="m" horiz-adv-x="683" 
d="M13 0l30 90v231l-24 74l174 105v-80q20 34 50.5 59.5t64.5 25.5q44 0 73.5 -19.5t35.5 -68.5q20 35 50.5 61.5t65.5 26.5q24 0 44 -10.5t35 -34t23 -62t8 -94.5v-213l30 -91h-210l30 90v211q0 59 -10.5 84t-32.5 25q-14 0 -32 -9v-7v-303l30 -91h-210l30 90v211
q0 59 -10.5 84t-32.5 25q-14 0 -32 -9v-311l30 -90h-210z" />
    <glyph glyph-name="n" unicode="n" horiz-adv-x="458" 
d="M13 0l30 90v231l-24 74l174 105v-80q20 34 50.5 59.5t64.5 25.5q24 0 44 -10.5t35 -34t23 -62t8 -94.5v-213l30 -91h-210l30 90v211q0 59 -10.5 84t-32.5 25q-14 0 -32 -9v-311l30 -90h-210z" />
    <glyph glyph-name="o" unicode="o" 
d="M215 505q47 0 85 -18t65 -51.5t42 -80.5t15 -105t-15 -105t-42 -80.5t-65 -51.5t-85 -18t-85 18t-65 51.5t-42 80.5t-15 105t15 105t42 80.5t65 51.5t85 18zM160 233q17 -51 32.5 -92t31 -69t31 -41t32.5 -7q18 6 24 25.5t2 51t-15.5 74.5t-28.5 94q-16 50 -31.5 90.5
t-31 68t-31.5 40.5t-34 7q-17 -6 -22.5 -25.5t-1.5 -50.5t15.5 -73t27.5 -93z" />
    <glyph glyph-name="p" unicode="p" 
d="M7 -250l30 90v481l-24 74l174 105v-81q29 43 49.5 64.5t45.5 21.5q23 0 47.5 -16.5t45 -48.5t34 -80t13.5 -111q0 -62 -12 -109.5t-31.5 -79.5t-44.5 -48.5t-51 -16.5q-18 0 -33 6.5t-27.5 17t-21.5 23t-14 24.5v-226l30 -90h-210zM187 401v-302q24 -18 40 -18
q24 0 34.5 40.5t10.5 128.5q0 48 -3.5 80.5t-9.5 52t-14.5 27.5t-19.5 8q-8 0 -17.5 -4.5t-20.5 -12.5z" />
    <glyph glyph-name="q" unicode="q" 
d="M149 505q26 0 48 -20.5t48 -52.5l13 -15l137 83v-660l30 -90h-210l30 90v245q-5 -12 -14 -27.5t-22 -29.5t-29.5 -23.5t-36.5 -9.5q-24 0 -48.5 16.5t-43.5 48t-31 78.5t-12 107q0 65 13.5 113.5t34 81t45.5 49t48 16.5zM203 81q15 0 42 19v309q-11 8 -20 12.5t-17 4.5
q-11 0 -20.5 -9t-16 -30t-10 -56t-3.5 -87q0 -85 10.5 -124t34.5 -39z" />
    <glyph glyph-name="r" unicode="r" horiz-adv-x="308" 
d="M13 0l30 90v231l-24 74l174 105v-82q20 33 50.5 57.5t64.5 24.5q17 0 30 -4l-70 -175q-2 48 -12.5 69t-30.5 21q-12 0 -32 -10v-311l30 -90h-210z" />
    <glyph glyph-name="s" unicode="s" horiz-adv-x="374" 
d="M141 500h184v-195l-108 180h-38q-14 0 -24 -10.5t-10 -29.5q0 -16 8.5 -33t22.5 -34.5t31.5 -35t35.5 -34.5q23 -21 44.5 -42.5t38 -43.5t26.5 -45t10 -47q0 -27 -12.5 -51t-33 -41.5t-46.5 -27.5t-54 -10h-184l10 195l108 -180h28q23 0 33 16t10 36q0 14 -4.5 27.5
t-15.5 30t-28.5 36t-44.5 45.5q-32 31 -53.5 55.5t-34.5 44.5t-18.5 37.5t-5.5 34.5q0 25 10.5 47.5t27.5 39t39.5 26t47.5 9.5z" />
    <glyph glyph-name="t" unicode="t" horiz-adv-x="270" 
d="M7 485l174 145v-130h94v-15h-94v-340q0 -22 5 -38t12.5 -26t16.5 -15t17 -5q11 0 18.5 7.5t7.5 21.5h15q0 -23 -9.5 -41t-26 -30t-38.5 -18t-47 -6q-33 0 -56 11.5t-37.5 32t-21 48t-6.5 58.5v340h-24z" />
    <glyph glyph-name="u" unicode="u" horiz-adv-x="449" 
d="M184 500v-301q0 -59 10.5 -84t32.5 -25q14 0 32 9v222l-24 74l174 105v-410l30 -90h-180v82q-20 -33 -50.5 -57.5t-64.5 -24.5q-24 0 -44 10.5t-35 33.5t-23 61.5t-8 93.5v122l-24 74z" />
    <glyph glyph-name="v" unicode="v" horiz-adv-x="362" 
d="M-13 500h212l-30 -90l80 -377l81 377l-13 90h75l-47 -90l-88 -410h-153l-87 410z" />
    <glyph glyph-name="w" unicode="w" horiz-adv-x="635" 
d="M-13 500h212l-30 -90l80 -377l61 283l-20 94l-30 90h212l-30 -90l80 -377l81 377l-13 90h75l-47 -90l-88 -410h-153l-60 281l-60 -281h-153l-87 410z" />
    <glyph glyph-name="x" unicode="x" horiz-adv-x="375" 
d="M126 222l-48 -132l-2 -90h-76l62 90l55 152l-117 258h218l-30 -90l60 -134l49 134l2 90h76l-62 -90l-56 -154l116 -256h-217l30 90z" />
    <glyph glyph-name="y" unicode="y" horiz-adv-x="359" 
d="M-13 500h212l-30 -90l80 -377l81 377l-13 90h75l-47 -90l-88 -410q-10 -49 -28.5 -93.5t-47 -79t-69 -55.5t-95.5 -22v150q33 0 69.5 4t69 15.5t56 31t30.5 49.5h-138l-87 410z" />
    <glyph glyph-name="z" unicode="z" horiz-adv-x="398" 
d="M13 0l206 485h-81l-125 -75l10 90h365l-206 -485h80l126 75v-90h-375z" />
    <glyph glyph-name="braceleft" unicode="{" horiz-adv-x="322" 
d="M22 252v15q11 0 27 19.5t31 49.5t26 66.5t11 70.5q0 65 12.5 116.5t36.5 87.5t58.5 55.5t77.5 19.5v-15q-20 0 -28 -23t-9.5 -56t0.5 -70t2 -65q0 -47 -14.5 -90t-40 -77.5t-60 -59.5t-74.5 -36q40 -11 74.5 -36t60 -60t40 -78t14.5 -90q0 -28 -2 -65t-0.5 -70t9.5 -56
t28 -23v-15q-43 0 -77.5 19.5t-58.5 55.5t-36.5 87.5t-12.5 116.5q0 34 -11 70.5t-26 66.5t-31 49.5t-27 19.5z" />
    <glyph glyph-name="bar" unicode="|" horiz-adv-x="57" 
d="M22 750h15v-1000h-15v1000z" />
    <glyph glyph-name="braceright" unicode="}" horiz-adv-x="322" 
d="M22 -218q20 0 28 23t9.5 56t-0.5 70t-2 65q0 47 14.5 90t40 78t60 60t74.5 36q-40 11 -74.5 36t-60 59.5t-40 77.5t-14.5 90q0 28 2 65t0.5 70t-9.5 56t-28 23v15q43 0 77.5 -19.5t58.5 -55.5t36.5 -87.5t12.5 -116.5q0 -34 11 -70.5t26 -66.5t31.5 -49.5t26.5 -19.5v-15
q-10 0 -26.5 -19.5t-31.5 -49.5t-26 -66.5t-11 -70.5q0 -65 -12.5 -116.5t-36.5 -87.5t-58.5 -55.5t-77.5 -19.5v15z" />
    <glyph glyph-name="asciitilde" unicode="~" horiz-adv-x="287" 
d="M164 402q11 -9 25.5 -14.5t27.5 -5.5q12 0 21.5 5.5t13.5 18.5h15q0 -13 -8 -26.5t-21 -24.5t-29 -17.5t-33 -6.5q-22 0 -39 13q-12 10 -28.5 14.5t-31.5 4.5q-17 0 -28.5 -5.5t-11.5 -16.5h-15q0 15 8 29t20.5 25.5t29 18t33.5 6.5q27 0 51 -18z" />
    <glyph glyph-name="exclamdown" unicode="&#xa1;" horiz-adv-x="172" 
d="M22 -248.957h150l-68 499.969h-14zM22 381.004q0 -33.998 20.5 -54.4961q20.5 -20.499 54.5 -20.499t54.5 20.499q20.5 20.498 20.5 54.4961t-20.5 54.4971t-54.5 20.499t-54.5 -20.499t-20.5 -54.4971z" />
    <glyph glyph-name="cent" unicode="&#xa2;" horiz-adv-x="382" 
d="M7 353q0 51 10 97t33 80.5t61.5 54.5t96.5 20v95h15v-96q50 -3 86.5 -26t58.5 -64l-117 -71q-2 48 -7.5 85.5t-20.5 53.5v-421q7 -5 11.5 -7t5.5 -2q9 -4 28 -4q22 0 49 10t50 36h15q-11 -25 -29.5 -42.5t-40 -28.5t-45 -17.5t-44.5 -8.5v-97h-15v95h-15
q-35 0 -68.5 15.5t-59.5 47.5t-42 80.5t-16 114.5zM157 354q0 -39 4.5 -69t12 -51.5t16.5 -36t18 -23.5v416h-4q-18 0 -27.5 -21.5t-14 -55.5t-5 -76t-0.5 -83z" />
    <glyph glyph-name="sterling" unicode="&#xa3;" horiz-adv-x="431" 
d="M188 705q27 0 59 -8t62 -25.5t53.5 -45t34.5 -67.5l-152 -56l10 73q0 24 -5.5 44.5t-14.5 36t-21 24.5t-25 9q-11 0 -18 -8t-7.5 -28.5t6 -56.5t23.5 -93q13 -45 20 -86t2 -84h130v-15h-132q-5 -32 -17.5 -65.5t-34 -70.5t-54 -78.5t-77.5 -88.5h261l124 74v-90h-415
q18 32 35 70t29 79.5t19 84.5t6 85h-44v15h43q-3 68 -33 126q-31 59 -29.5 104.5t24 77t60 47.5t78.5 16z" />
    <glyph glyph-name="currency" unicode="&#xa4;" horiz-adv-x="412" 
d="M29 554l66 -66q25 21 54.5 31.5t59.5 10.5q29 0 57.5 -10t52.5 -30l64 64l21 -21l-64 -64q21 -25 31.5 -54t10.5 -59t-10.5 -59t-31.5 -54l64 -64l-21 -21l-64 64q-25 -21 -54 -31.5t-59 -10.5t-59 10.5t-54 31.5l-64 -64l-21 21l64 64q-20 24 -30 53t-10 59t10.5 59
t31.5 53l-66 66zM104 253q22 -22 48.5 -32.5t54.5 -10.5q27 0 53.5 10.5t48.5 32.5t32.5 48.5t10.5 54.5t-11 54.5t-32 47.5t-47 31.5t-54 10.5t-55 -11t-48 -32t-32 -48t-11 -54.5t10.5 -54t31.5 -47.5z" />
    <glyph glyph-name="yen" unicode="&#xa5;" horiz-adv-x="473" 
d="M223 700l-30 -90l95 -273l94 273l-13 90h79l-47 -90l-104 -300v-1h76v-15h-76v-115h76v-15h-76v-74l30 -90h-210l30 90v74h-74v15h74v115h-74v15h74v1l-147 390h223z" />
    <glyph glyph-name="brokenbar" unicode="&#xa6;" horiz-adv-x="57" 
d="M37 185v-435h-15v435h15zM37 750v-425h-15v425h15z" />
    <glyph glyph-name="section" unicode="&#xa7;" horiz-adv-x="354" 
d="M135 451h20q-7 8 -15 16l-17 17q-29 28 -48.5 50t-31 40t-16.5 33.5t-5 31.5q0 23 9 43t25 35t36.5 23.5t42.5 8.5h166v-176l-98 162h-34q-12 0 -21.5 -9.5t-9.5 -26.5q0 -14 7.5 -29.5t20.5 -31t29 -31.5t32 -31q21 -19 40 -38.5t34 -39.5t24 -40.5t9 -42.5
q0 -24 -11 -45t-29 -37t-41 -25t-47 -10q5 -5 10.5 -10t10.5 -10q21 -19 40 -38.5t34 -39t24 -40.5t9 -43q0 -25 -11 -46t-29.5 -37t-42.5 -25t-49 -9h-166l9 176l98 -162h25q20 0 29.5 14t9.5 32q0 13 -4 25.5t-14 27t-26 32.5t-40 41q-29 28 -48.5 50t-31 40t-16.5 34
t-5 31q0 23 9 43t25 35t36.5 23.5t42.5 8.5zM167 438q-11 -1 -20 -10.5t-9 -25.5q0 -20 14.5 -42t35.5 -44q10 6 14.5 17.5t4.5 24.5q0 18 -8.5 36t-31.5 44z" />
    <glyph glyph-name="dieresis" unicode="&#xa8;" horiz-adv-x="268" 
d="M211 700q17 0 27 -10t10 -27t-10 -27.5t-27 -10.5t-27.5 10.5t-10.5 27.5t10.5 27t27.5 10zM22 663q0 17 10.5 27t27.5 10t27 -10t10 -27t-10 -27.5t-27 -10.5t-27.5 10.5t-10.5 27.5z" />
    <glyph glyph-name="copyright" unicode="&#xa9;" horiz-adv-x="716" 
d="M8 350q0 72 27.5 136t75 111.5t111.5 75t136 27.5t136 -27.5t111.5 -75t75 -111.5t27.5 -136t-27.5 -136t-75 -111.5t-111.5 -75t-136 -27.5t-136 27.5t-111.5 75t-75 111.5t-27.5 136zM23 350q0 -72 25 -133.5t70 -106.5t106.5 -70t133.5 -25t133.5 25t106.5 70
t70 106.5t25 133.5t-25 133.5t-70 106.5t-106.5 70t-133.5 25t-133.5 -25t-106.5 -70t-70 -106.5t-25 -133.5zM189 346q0 57 12.5 104t36 80.5t56.5 52.5t73 19q44 0 76.5 -25t54.5 -79l-111 -42l8 53q-8 34 -21 57t-25 23q-9 0 -16.5 -12t-13 -32t-8 -45t-2.5 -51
q0 -81 12 -134t31 -83.5t42.5 -43t47.5 -12.5q28 0 53 20h11q-23 -40 -56.5 -59.5t-75.5 -19.5q-34 0 -67 13t-59.5 41t-42.5 71t-16 104z" />
    <glyph glyph-name="ordfeminine" unicode="&#xaa;" horiz-adv-x="245" 
d="M22 499q0 26 18.5 45.5t45.5 29.5l49 16v83q0 10 -5.5 14.5t-11.5 4.5q-15 0 -20.5 -21t-5.5 -50l-59 35q14 26 41.5 35t55.5 9q14 0 28.5 -4t26 -15.5t18.5 -30.5t7 -49v-106l15 -45h-90v43q-11 -17 -25 -30t-36 -13q-8 0 -17.5 2.5t-17 8t-12.5 15t-5 23.5zM114 487
q6 0 11.5 4t9.5 9v83q-19 -8 -28.5 -27t-9.5 -39q0 -8 3 -19t14 -11z" />
    <glyph glyph-name="guillemotleft" unicode="&#xab;" horiz-adv-x="294" 
d="M22 250l117 195h15l-57 -195l57 -195h-15zM142 250l117 195h15l-57 -195l57 -195h-15z" />
    <glyph glyph-name="logicalnot" unicode="&#xac;" horiz-adv-x="470" 
d="M22 326h375v-150h-30v120h-345v30z" />
    <glyph glyph-name="registered" unicode="&#xae;" horiz-adv-x="367" 
d="M8 525q0 36 14 68t37.5 56t55.5 38t68 14t68 -14t56 -38t38 -56t14 -68t-14 -68t-38 -55.5t-56 -37.5t-68 -14t-68 14t-55.5 37.5t-37.5 55.5t-14 68zM183 365q33 0 62.5 12.5t51.5 34t34.5 51t12.5 62.5t-12.5 62.5t-34.5 51.5t-51.5 34.5t-62.5 12.5t-62.5 -12.5
t-51 -34.5t-34 -51.5t-12.5 -62.5t12.5 -62.5t34 -51t51 -34t62.5 -12.5zM120 640h55q30 0 52.5 -15.5t22.5 -45.5q0 -29 -26 -47l26 -79l16 -28h-74l9 28l-19 69q-5 0 -7 1v-70l9 -28h-64l9 28v159zM204 579q0 20 -3.5 35.5t-25.5 20.5v-107q11 -1 17 3.5t8.5 12t3 17
t0.5 18.5z" />
    <glyph glyph-name="macron" unicode="&#xaf;" horiz-adv-x="282" 
d="M22 700h240v-15h-240v15z" />
    <glyph glyph-name="degree" unicode="&#xb0;" horiz-adv-x="192" 
d="M97 700q34 0 54.5 -20.5t20.5 -53.5q0 -34 -20.5 -54.5t-54.5 -20.5t-54.5 20.5t-20.5 54.5q0 33 20.5 53.5t54.5 20.5zM37 626q0 -27 16.5 -43.5t43.5 -16.5t43.5 16.5t16.5 43.5q0 26 -16.5 42.5t-43.5 16.5t-43.5 -16.5t-16.5 -42.5z" />
    <glyph glyph-name="plusminus" unicode="&#xb1;" horiz-adv-x="342" 
d="M22 92h300v-15h-300v15zM22 282h142v143h17v-143h141v-15h-141v-142h-17v142h-142v15z" />
    <glyph glyph-name="twosuperior" unicode="&#xb2;" horiz-adv-x="235" 
d="M43.5 547q10 22 26.25 45.5t32 49.75t27 56.25t11.25 64.5q0 10 -1 24.25t-3.75 27.5t-7.25 22.75t-11.5 9.5q-6.5 0 -10.25 -9.25t-5.5 -23.25t-2.25 -30.75t-0.5 -31.75l-74 44.5q6.5 12 17.5 22.5t25 18.5t29.75 12.5t31.75 5q20.5 0.5 36.5 -6.5t27.25 -19
t17.25 -28.75t6 -35.75q0 -23.5 -9.5 -44.25t-24.25 -39.75t-33.25 -36.25t-36.5 -33.5t-34 -31.75t-25.5 -31l163 28.5l-5 -75h-187.5z" />
    <glyph glyph-name="threesuperior" unicode="&#xb3;" horiz-adv-x="239" 
d="M97 588q0 -32 2.5 -55.5t18.5 -23.5q8 0 13 9t8 22t4 28t1 27q0 42 -8.5 63.5t-17.5 22.5h-21v8h21q9 1 15 20.5t6 56.5q0 32 -2.5 55t-17.5 23q-16 0 -19 -24.5t-3 -56.5l-62 37q10 24 32.5 37.5t53.5 13.5q17 0 33 -5t28 -15.5t19.5 -27.5t7.5 -41q-2 -35 -16.5 -52.5
t-37.5 -24.5q30 -7 47 -28t17 -59q0 -27 -8 -45.5t-21.5 -30t-31.5 -16.5t-37 -5q-45 0 -72 24t-27 63h75z" />
    <glyph glyph-name="acute" unicode="&#xb4;" horiz-adv-x="232" 
d="M72.0098 750q-12.999 -39 -23.998 -69q-5 -13 -9 -26t-7.99902 -23q-4 -10 -6.5 -16.5t-2.5 -7.5h14.999l174.989 142h-139.991z" />
    <glyph glyph-name="paragraph" unicode="&#xb6;" horiz-adv-x="433" 
d="M243 318q-11 -2 -21.5 -3.5t-21.5 -1.5q-40 0 -75.5 16t-61 42t-40.5 59.5t-15 69.5q0 49 19 86.5t51.5 62.5t75 38t89.5 13h180l-30 -90v-610l30 -90h-78v775h-55v-775h-77l30 90v318z" />
    <glyph glyph-name="periodcentered" unicode="&#xb7;" horiz-adv-x="192" 
d="M22 350q0 34 20.5 54.5t54.5 20.5t54.5 -20.5t20.5 -54.5t-20.5 -54.5t-54.5 -20.5t-54.5 20.5t-20.5 54.5z" />
    <glyph glyph-name="cedilla" unicode="&#xb8;" horiz-adv-x="225" 
d="M22 -209v15q22 -22 56 -22q23 0 41 14.5t18 47.5q0 9 -2 21t-7 22.5t-13.5 18t-22.5 7.5q-10 0 -22.5 -5t-28.5 -16l40 106h15l-29 -76q11 11 24.5 15.5t28.5 4.5t30.5 -5.5t27.5 -16t19.5 -26.5t7.5 -37q0 -24 -9.5 -42t-24.5 -30t-34.5 -18t-39.5 -6q-21 0 -41 7
t-34 21z" />
    <glyph glyph-name="onesuperior" unicode="&#xb9;" horiz-adv-x="162" 
d="M22 787l105 63v-305l15 -45h-105l15 45v253l-30 -18v7z" />
    <glyph glyph-name="ordmasculine" unicode="&#xba;" horiz-adv-x="229" 
d="M116 701q42 0 67.5 -34t25.5 -91t-25.5 -91t-67.5 -34q-43 0 -68.5 34t-25.5 91t25.5 91t68.5 34zM89 557q5 -7 14 -20t20 -25.5t22 -21.5t19 -9q9 0 10.5 7.5t1.5 11.5q0 23 -9.5 48t-20.5 42q-5 8 -14.5 21t-21 25.5t-23 21.5t-20.5 9t-10.5 -7t-1.5 -11
q0 -24 11.5 -48.5t22.5 -43.5z" />
    <glyph glyph-name="guillemotright" unicode="&#xbb;" horiz-adv-x="294" 
d="M154.001 250l-116.992 195h-14.999l56.9961 -195l-56.9961 -195h14.999zM274.001 250l-116.992 195h-14.999l56.9961 -195l-56.9961 -195h14.999z" />
    <glyph glyph-name="onequarter" unicode="&#xbc;" horiz-adv-x="377" 
d="M22.5 629.5v7.5l105 63v-305l15 -45h-105l15 45v252.5zM269 700h17l-236 -710h-17zM217 294l94.5 56l-84 -255.5h23.5v25.5l75 45v-70.5h31v-7.5h-31v-41l15 -46h-105l15 45.5v41.5h-102.5z" />
    <glyph glyph-name="onehalf" unicode="&#xbd;" horiz-adv-x="390" 
d="M22.5 629.5v7.5l105 63v-305l15 -45h-105l15 45v252.5zM269 700h17l-236 -710h-17zM198.5 45q10 22 26.25 45.5t32 49.75t27 56.25t11.25 64.5q0 10 -1 24.25t-3.75 27.5t-7.25 22.75t-11.5 9.5q-6.5 0 -10.25 -9.25t-5.5 -23.25t-2.25 -30.75t-0.5 -31.75l-74 44.5
q6.5 12 17.5 22.5t25 18.5t29.75 12.5t31.75 5q20.5 0.5 36.5 -6.5t27.25 -19t17.25 -28.75t6 -35.75q0 -23.5 -9.5 -44.25t-24.25 -39.75t-33.25 -36.25t-36.5 -33.5t-34 -31.75t-25.5 -31l163 28.5l-5 -75h-187.5z" />
    <glyph glyph-name="threequarters" unicode="&#xbe;" horiz-adv-x="420" 
d="M97.5 436.5q0 -16 0.25 -30.75t2.25 -26t6.25 -18t12.25 -6.75t13.25 9t8.25 22.5t4 28.75t1 27.75q0 42.5 -8.75 64.5t-17.75 22.5h-21v7.5h21q9 0.5 15.25 20.25t6.25 57.75q0 16.5 -0.25 30.75t-2.25 25.25t-6.25 17.25t-11.75 6.25q-8 0 -12.5 -7t-6.75 -18.5
t-2.5 -26.5t-0.25 -31l-61.5 37q9.5 25 32 39.25t54 14.25q17.5 0 33.25 -5t28 -15.75t19.5 -28t7.25 -42.25q-2 -35.5 -17.25 -53.25t-38.75 -24.25q31.5 -7 48.75 -28t17.25 -60q0 -27 -8.25 -46t-21.75 -30.5t-31.25 -16.75t-37.25 -5.25q-22.5 0 -40.75 6.5
t-31.25 18.25t-20 28t-7 36.25h75zM331 700h17l-236 -710h-17zM260 294l94.5 56l-84 -255.5h23.5v25.5l75 45v-70.5h31v-7.5h-31v-41l15 -46h-105l15 45.5v41.5h-102.5z" />
    <glyph glyph-name="questiondown" unicode="&#xbf;" horiz-adv-x="296" 
d="M395.999 -132.964q-25.999 -47.9971 -74.9961 -82.4951t-119.992 -34.498q-31.998 0 -63.9961 8q-31.998 7.99902 -57.4961 25.998q-25.499 17.999 -41.498 46.9971t-15.999 69.9961q0 32.998 10 60.4961q9.99902 27.498 25.498 51.4971q15.499 23.998 34.498 45.4971
t37.9971 41.4971q31.998 31.998 54.9971 63.4961q22.998 31.498 22.998 66.4961q0 13.999 -3.99902 25.998h13.999q16.999 -21.998 23.998 -42.9971q7 -20.999 7 -42.9971q0 -10 -1.5 -19.999t-5 -22.998q-3.49902 -13 -9.49902 -29.499t-14.999 -38.4971
q-16.999 -38.998 -31.498 -83.9951t-14.499 -101.994q0 -5.99902 0.5 -22.998t3.99902 -35.998q3.5 -18.999 11 -33.498q7.49902 -14.499 20.498 -14.499q14 0 21.999 18.499q8 18.499 11.999 46.4971q4 27.998 5 61.4961t1 63.4961zM284.006 388.004
q0 -34.998 -20.499 -55.9961q-20.499 -20.999 -53.4971 -20.999q-33.998 0 -54.9961 20.999q-20.999 20.998 -20.999 55.9961t20.999 56.4971q20.998 21.498 54.9961 21.498q32.998 0 53.4971 -21.498q20.499 -21.499 20.499 -56.4971z" />
    <glyph glyph-name="Agrave" unicode="&#xc0;" horiz-adv-x="486" 
d="M0 0l50 90l106 553l-19 57h184l115 -610l50 -90h-214l10 90l-46 242l-137 -82l-30 -160l10 -90h-79zM103 269l131 78l-58 305zM264 892q13 -39 24 -69q5 -13 9 -26t8 -23t6.5 -16.5t2.5 -7.5h-15l-175 142h140z" />
    <glyph glyph-name="Aacute" unicode="&#xc1;" horiz-adv-x="486" 
d="M0 0l50 90l106 553l-19 57h184l115 -610l50 -90h-214l10 90l-46 242l-137 -82l-30 -160l10 -90h-79zM103 269l131 78l-58 305zM225.01 892q-12.999 -39 -23.998 -69q-5 -13 -9 -26t-7.99902 -23q-4 -10 -6.5 -16.5t-2.5 -7.5h14.999l174.989 142h-139.991z" />
    <glyph glyph-name="Acircumflex" unicode="&#xc2;" horiz-adv-x="486" 
d="M0 0l50 90l106 553l-19 57h184l115 -610l50 -90h-214l10 90l-46 242l-137 -82l-30 -160l10 -90h-79zM103 269l131 78l-58 305zM120 750.046h15l108 50.9961l107 -50.9961h15l-122 125.992z" />
    <glyph glyph-name="Atilde" unicode="&#xc3;" horiz-adv-x="486" 
d="M0 0l50 90l106 553l-19 57h184l115 -610l50 -90h-214l10 90l-46 242l-137 -82l-30 -160l10 -90h-79zM103 269l131 78l-58 305zM262 822q11 -9 25.5 -14.5t27.5 -5.5q12 0 21.5 5.5t13.5 18.5h15q0 -13 -8 -26.5t-21 -24.5t-29 -17.5t-33 -6.5q-22 0 -39 13
q-12 10 -28.5 14.5t-31.5 4.5q-17 0 -28.5 -5.5t-11.5 -16.5h-15q0 15 8 29t20.5 25.5t29 18t33.5 6.5q27 0 51 -18z" />
    <glyph glyph-name="Adieresis" unicode="&#xc4;" horiz-adv-x="486" 
d="M0 0l50 90l106 553l-19 57h184l115 -610l50 -90h-214l10 90l-46 242l-137 -82l-30 -160l10 -90h-79zM103 269l131 78l-58 305zM318 827q17 0 27 -10t10 -27t-10 -27.5t-27 -10.5t-27.5 10.5t-10.5 27.5t10.5 27t27.5 10zM129 790q0 17 10.5 27t27.5 10t27 -10t10 -27
t-10 -27.5t-27 -10.5t-27.5 10.5t-10.5 27.5z" />
    <glyph glyph-name="Aring" unicode="&#xc5;" horiz-adv-x="486" 
d="M0 0l50 90l106 553l-19 57h184l115 -610l50 -90h-214l10 90l-46 242l-137 -82l-30 -160l10 -90h-79zM103 269l131 78l-58 305zM243 882q33 0 53.5 -18t20.5 -47t-20.5 -47.5t-53.5 -18.5q-35 0 -55.5 18.5t-20.5 47.5t20.5 47t55.5 18zM182 817q0 -23 16.5 -37t43.5 -14
t43.5 14t16.5 37q0 22 -16.5 36t-43.5 14t-43.5 -14t-16.5 -36z" />
    <glyph glyph-name="AE" unicode="&#xc6;" horiz-adv-x="659" 
d="M0 0l50 90l223 599l-3 11h356v-127l-180 108v-162t-1 -162h40l90 30v-75l-90 30h-40v-161t1 -161l197 118v-138h-378l30 90v252h-133l-93 -252l10 -90h-79zM168 357h128v253l-15 52z" />
    <glyph glyph-name="Ccedilla" unicode="&#xc7;" horiz-adv-x="438" 
d="M11 336q0 81 17 149t47.5 116.5t74.5 76t98 27.5q58 0 102 -34.5t73 -109.5l-148 -56l10 73q-11 47 -27.5 78t-33.5 31q-12 0 -22 -17t-17 -45t-10.5 -63t-3.5 -70q0 -115 14.5 -194t37.5 -128t51 -70.5t56 -21.5q9 0 24.5 2.5t29.5 9t24.5 17.5t10.5 28h15
q0 -33 -20 -59t-49.5 -44t-64 -27.5t-63.5 -9.5q-40 0 -80.5 19t-72.5 60t-52.5 105.5t-20.5 156.5zM104 -194v15q22 -22 56 -22q23 0 41 14.5t18 47.5q0 9 -2 21t-7 22.5t-13.5 18t-22.5 7.5q-10 0 -22.5 -5t-28.5 -16l40 106h15l-29 -76q11 11 24.5 15.5t28.5 4.5
t30.5 -5.5t27.5 -16t19.5 -26.5t7.5 -37q0 -24 -9.5 -42t-24.5 -30t-34.5 -18t-39.5 -6q-21 0 -41 7t-34 21z" />
    <glyph glyph-name="Egrave" unicode="&#xc8;" horiz-adv-x="416" 
d="M22 0l30 90v138.5t0.5 121.5t0.5 121.5v138.5l-26 90h356v-127l-180 108v-162t-1 -162h40l90 30v-75l-90 30h-40v-161t1 -161l197 118v-138h-378zM176 893q13 -39 24 -69q5 -13 9 -26t8 -23t6.5 -16.5t2.5 -7.5h-15l-175 142h140z" />
    <glyph glyph-name="Eacute" unicode="&#xc9;" horiz-adv-x="416" 
d="M22 0l30 90v138.5t0.5 121.5t0.5 121.5v138.5l-26 90h356v-127l-180 108v-162t-1 -162h40l90 30v-75l-90 30h-40v-161t1 -161l197 118v-138h-378zM226.01 893q-12.999 -39 -23.998 -69q-5 -13 -9 -26t-7.99902 -23q-4 -10 -6.5 -16.5t-2.5 -7.5h14.999l174.989 142
h-139.991z" />
    <glyph glyph-name="Ecircumflex" unicode="&#xca;" horiz-adv-x="416" 
d="M22 0l30 90v138.5t0.5 121.5t0.5 121.5v138.5l-26 90h356v-127l-180 108v-162t-1 -162h40l90 30v-75l-90 30h-40v-161t1 -161l197 118v-138h-378zM69 750.046h15l108 50.9961l107 -50.9961h15l-122 125.992z" />
    <glyph glyph-name="Edieresis" unicode="&#xcb;" horiz-adv-x="416" 
d="M22 0l30 90v138.5t0.5 121.5t0.5 121.5v138.5l-26 90h356v-127l-180 108v-162t-1 -162h40l90 30v-75l-90 30h-40v-161t1 -161l197 118v-138h-378zM267 826q17 0 27 -10t10 -27t-10 -27.5t-27 -10.5t-27.5 10.5t-10.5 27.5t10.5 27t27.5 10zM78 789q0 17 10.5 27t27.5 10
t27 -10t10 -27t-10 -27.5t-27 -10.5t-27.5 10.5t-10.5 27.5z" />
    <glyph glyph-name="Igrave" unicode="&#xcc;" horiz-adv-x="241" 
d="M42 90v520l-26 90h200l-24 -90v-520l29 -90h-210zM71 890q13 -39 24 -69q5 -13 9 -26t8 -23t6.5 -16.5t2.5 -7.5h-15l-175 142h140z" />
    <glyph glyph-name="Iacute" unicode="&#xcd;" horiz-adv-x="241" 
d="M42 90v520l-26 90h200l-24 -90v-520l29 -90h-210zM97.0098 890q-12.999 -39 -23.998 -69q-5 -13 -9 -26t-7.99902 -23q-4 -10 -6.5 -16.5t-2.5 -7.5h14.999l174.989 142h-139.991z" />
    <glyph glyph-name="Icircumflex" unicode="&#xce;" horiz-adv-x="241" 
d="M42 90v520l-26 90h200l-24 -90v-520l29 -90h-210zM-9 750.046h15l108 50.9961l107 -50.9961h15l-122 125.992z" />
    <glyph glyph-name="Idieresis" unicode="&#xcf;" horiz-adv-x="241" 
d="M42 90v520l-26 90h200l-24 -90v-520l29 -90h-210zM198 830q17 0 27 -10t10 -27t-10 -27.5t-27 -10.5t-27.5 10.5t-10.5 27.5t10.5 27t27.5 10zM9 793q0 17 10.5 27t27.5 10t27 -10t10 -27t-10 -27.5t-27 -10.5t-27.5 10.5t-10.5 27.5z" />
    <glyph glyph-name="Eth" unicode="&#xd0;" horiz-adv-x="479" 
d="M212 358h40v-15h-40v-328q32 0 51 20t29 61t13 104t3 150t-3 150t-13 104t-29 61t-51 20v-327zM22 359h40v251l-30 90h180q132 0 194 -83.5t62 -263.5q0 -181 -63.5 -267t-192.5 -86h-180l30 90v254h-40v15z" />
    <glyph glyph-name="Ntilde" unicode="&#xd1;" horiz-adv-x="478" 
d="M18 700h171l226 -575l-1 485l-30 90h79l-30 -90v-520l24 -73l7 -17h-161l-238 606l1 -516l29 -90h-77l30 90v520zM273 823q11 -9 25.5 -14.5t27.5 -5.5q12 0 21.5 5.5t13.5 18.5h15q0 -13 -8 -26.5t-21 -24.5t-29 -17.5t-33 -6.5q-22 0 -39 13q-12 10 -28.5 14.5
t-31.5 4.5q-17 0 -28.5 -5.5t-11.5 -16.5h-15q0 15 8 29t20.5 25.5t29 18t33.5 6.5q27 0 51 -18z" />
    <glyph glyph-name="Ograve" unicode="&#xd2;" horiz-adv-x="447" 
d="M224 705q49 0 88.5 -24.5t67 -70t42 -111t14.5 -147.5q0 -83 -14.5 -149t-42 -112t-66.5 -70.5t-89 -24.5q-49 0 -88.5 24.5t-67.5 70.5t-42.5 112t-14.5 149q0 82 14.5 147.5t42.5 111t67.5 70t88.5 24.5zM144 268q22 -51 48 -88.5t51.5 -62.5t48 -37.5t37.5 -12.5
q8 0 15 5q20 16 27 51.5t2 83.5t-21.5 105.5t-44.5 117.5q-23 51 -50.5 88t-53.5 61.5t-49.5 36.5t-38.5 12q-9 0 -16 -5q-18 -15 -24 -47.5t0 -79t23.5 -105t45.5 -123.5zM157 890q13 -39 24 -69q5 -13 9 -26t8 -23t6.5 -16.5t2.5 -7.5h-15l-175 142h140z" />
    <glyph glyph-name="Oacute" unicode="&#xd3;" horiz-adv-x="447" 
d="M224 705q49 0 88.5 -24.5t67 -70t42 -111t14.5 -147.5q0 -83 -14.5 -149t-42 -112t-66.5 -70.5t-89 -24.5q-49 0 -88.5 24.5t-67.5 70.5t-42.5 112t-14.5 149q0 82 14.5 147.5t42.5 111t67.5 70t88.5 24.5zM144 268q22 -51 48 -88.5t51.5 -62.5t48 -37.5t37.5 -12.5
q8 0 15 5q20 16 27 51.5t2 83.5t-21.5 105.5t-44.5 117.5q-23 51 -50.5 88t-53.5 61.5t-49.5 36.5t-38.5 12q-9 0 -16 -5q-18 -15 -24 -47.5t0 -79t23.5 -105t45.5 -123.5zM267.01 892q-12.999 -39 -23.998 -69q-5 -13 -9 -26t-7.99902 -23q-4 -10 -6.5 -16.5t-2.5 -7.5
h14.999l174.989 142h-139.991z" />
    <glyph glyph-name="Ocircumflex" unicode="&#xd4;" horiz-adv-x="447" 
d="M224 705q49 0 88.5 -24.5t67 -70t42 -111t14.5 -147.5q0 -83 -14.5 -149t-42 -112t-66.5 -70.5t-89 -24.5q-49 0 -88.5 24.5t-67.5 70.5t-42.5 112t-14.5 149q0 82 14.5 147.5t42.5 111t67.5 70t88.5 24.5zM144 268q22 -51 48 -88.5t51.5 -62.5t48 -37.5t37.5 -12.5
q8 0 15 5q20 16 27 51.5t2 83.5t-21.5 105.5t-44.5 117.5q-23 51 -50.5 88t-53.5 61.5t-49.5 36.5t-38.5 12q-9 0 -16 -5q-18 -15 -24 -47.5t0 -79t23.5 -105t45.5 -123.5zM89 750.046h15l108 50.9961l107 -50.9961h15l-122 125.992z" />
    <glyph glyph-name="Otilde" unicode="&#xd5;" horiz-adv-x="447" 
d="M224 705q49 0 88.5 -24.5t67 -70t42 -111t14.5 -147.5q0 -83 -14.5 -149t-42 -112t-66.5 -70.5t-89 -24.5q-49 0 -88.5 24.5t-67.5 70.5t-42.5 112t-14.5 149q0 82 14.5 147.5t42.5 111t67.5 70t88.5 24.5zM144 268q22 -51 48 -88.5t51.5 -62.5t48 -37.5t37.5 -12.5
q8 0 15 5q20 16 27 51.5t2 83.5t-21.5 105.5t-44.5 117.5q-23 51 -50.5 88t-53.5 61.5t-49.5 36.5t-38.5 12q-9 0 -16 -5q-18 -15 -24 -47.5t0 -79t23.5 -105t45.5 -123.5zM231 822q11 -9 25.5 -14.5t27.5 -5.5q12 0 21.5 5.5t13.5 18.5h15q0 -13 -8 -26.5t-21 -24.5
t-29 -17.5t-33 -6.5q-22 0 -39 13q-12 10 -28.5 14.5t-31.5 4.5q-17 0 -28.5 -5.5t-11.5 -16.5h-15q0 15 8 29t20.5 25.5t29 18t33.5 6.5q27 0 51 -18z" />
    <glyph glyph-name="Odieresis" unicode="&#xd6;" horiz-adv-x="447" 
d="M224 705q49 0 88.5 -24.5t67 -70t42 -111t14.5 -147.5q0 -83 -14.5 -149t-42 -112t-66.5 -70.5t-89 -24.5q-49 0 -88.5 24.5t-67.5 70.5t-42.5 112t-14.5 149q0 82 14.5 147.5t42.5 111t67.5 70t88.5 24.5zM144 268q22 -51 48 -88.5t51.5 -62.5t48 -37.5t37.5 -12.5
q8 0 15 5q20 16 27 51.5t2 83.5t-21.5 105.5t-44.5 117.5q-23 51 -50.5 88t-53.5 61.5t-49.5 36.5t-38.5 12q-9 0 -16 -5q-18 -15 -24 -47.5t0 -79t23.5 -105t45.5 -123.5zM302 827q17 0 27 -10t10 -27t-10 -27.5t-27 -10.5t-27.5 10.5t-10.5 27.5t10.5 27t27.5 10zM113 790
q0 17 10.5 27t27.5 10t27 -10t10 -27t-10 -27.5t-27 -10.5t-27.5 10.5t-10.5 27.5z" />
    <glyph glyph-name="multiply" unicode="&#xd7;" horiz-adv-x="326" 
d="M33 393l130 -130l131 131l12 -12l-131 -131l129 -129l-10 -11l-130 129l-130 -130l-12 12l130 130l-130 131z" />
    <glyph glyph-name="Oslash" unicode="&#xd8;" horiz-adv-x="447" 
d="M224 705q49 0 88.5 -24.5t67 -70t42 -111t14.5 -147.5q0 -83 -14.5 -149t-42 -112t-66.5 -70.5t-89 -24.5q-49 0 -88.5 24.5t-67.5 70.5t-42.5 112t-14.5 149q0 82 14.5 147.5t42.5 111t67.5 70t88.5 24.5zM144 268q22 -51 48 -88.5t51.5 -62.5t48 -37.5t37.5 -12.5
q8 0 15 5q20 16 27 51.5t2 83.5t-21.5 105.5t-44.5 117.5q-23 51 -50.5 88t-53.5 61.5t-49.5 36.5t-38.5 12q-9 0 -16 -5q-18 -15 -24 -47.5t0 -79t23.5 -105t45.5 -123.5zM321 700h17l-236 -710h-17z" />
    <glyph glyph-name="Ugrave" unicode="&#xd9;" horiz-adv-x="470" 
d="M15 700h210l-30 -91v-463q0 -17 5.5 -39t18 -41.5t32.5 -32.5t49 -13q15 0 34.5 5t37 19t29 38.5t11.5 63.5v463l-30 91h78l-30 -91v-463q0 -151 -190 -151q-42 0 -78 14t-62 36t-40.5 49t-14.5 52v463zM228 890q13 -39 24 -69q5 -13 9 -26t8 -23t6.5 -16.5t2.5 -7.5h-15
l-175 142h140z" />
    <glyph glyph-name="Uacute" unicode="&#xda;" horiz-adv-x="470" 
d="M15 700h210l-30 -91v-463q0 -17 5.5 -39t18 -41.5t32.5 -32.5t49 -13q15 0 34.5 5t37 19t29 38.5t11.5 63.5v463l-30 91h78l-30 -91v-463q0 -151 -190 -151q-42 0 -78 14t-62 36t-40.5 49t-14.5 52v463zM258.01 890q-12.999 -39 -23.998 -69q-5 -13 -9 -26t-7.99902 -23
q-4 -10 -6.5 -16.5t-2.5 -7.5h14.999l174.989 142h-139.991z" />
    <glyph glyph-name="Ucircumflex" unicode="&#xdb;" horiz-adv-x="470" 
d="M15 700h210l-30 -91v-463q0 -17 5.5 -39t18 -41.5t32.5 -32.5t49 -13q15 0 34.5 5t37 19t29 38.5t11.5 63.5v463l-30 91h78l-30 -91v-463q0 -151 -190 -151q-42 0 -78 14t-62 36t-40.5 49t-14.5 52v463zM100 751.046h15l108 50.9961l107 -50.9961h15l-122 125.992z" />
    <glyph glyph-name="Udieresis" unicode="&#xdc;" horiz-adv-x="470" 
d="M15 700h210l-30 -91v-463q0 -17 5.5 -39t18 -41.5t32.5 -32.5t49 -13q15 0 34.5 5t37 19t29 38.5t11.5 63.5v463l-30 91h78l-30 -91v-463q0 -151 -190 -151q-42 0 -78 14t-62 36t-40.5 49t-14.5 52v463zM359 826q17 0 27 -10t10 -27t-10 -27.5t-27 -10.5t-27.5 10.5
t-10.5 27.5t10.5 27t27.5 10zM170 789q0 17 10.5 27t27.5 10t27 -10t10 -27t-10 -27.5t-27 -10.5t-27.5 10.5t-10.5 27.5z" />
    <glyph glyph-name="Yacute" unicode="&#xdd;" horiz-adv-x="443" 
d="M0 700h223l-30 -90l95 -273l94 273l-13 90h79l-47 -90l-104 -300v-220l30 -90h-210l30 90v220zM278.01 890q-12.999 -39 -23.998 -69q-5 -13 -9 -26t-7.99902 -23q-4 -10 -6.5 -16.5t-2.5 -7.5h14.999l174.989 142h-139.991z" />
    <glyph glyph-name="Thorn" unicode="&#xde;" horiz-adv-x="427" 
d="M52 90v520l-30 90h210l-30 -90v-65q47 0 89.5 -13t75 -38t51.5 -62.5t19 -86.5q0 -36 -15 -69.5t-40.5 -59.5t-60.5 -42t-76 -16q-11 0 -21.5 1.5t-21.5 3.5v-73l30 -90h-210zM202 530v-352q32 -4 49 11t25 40t9.5 56.5t1.5 59.5q0 32 -1.5 65t-9.5 59t-25 43t-49 18z
" />
    <glyph glyph-name="germandbls" unicode="&#xdf;" horiz-adv-x="555" 
d="M40 91v362q0 65 13.5 112.5t38 78.5t59 46t76.5 15q44 0 84 -15.5t66 -46.5q23 -27 22 -50.5t-16.5 -43t-39.5 -36.5t-47.5 -32t-40 -28.5t-16.5 -27.5q0 -16 26.5 -30.5t65.5 -31.5t83.5 -40.5t81.5 -58.5q4 -4 15.5 -16t23.5 -30t21 -40.5t9 -47.5q0 -27 -12.5 -51
t-33 -41.5t-46.5 -27.5t-54 -10h-184l10 195l108 -180h28q23 0 33 16t10 37q0 14 -4.5 27.5t-15.5 30t-28.5 36t-44.5 45.5q-32 32 -53.5 56.5t-34.5 46t-18.5 41.5t-5.5 42q0 32 9 52t19.5 38.5t19.5 40t8 57.5q0 22 -4.5 41.5t-11 34.5t-14.5 24t-17 9q-16 0 -24 -27
t-11 -65t-3 -78v-67v-453h-180z" />
    <glyph glyph-name="agrave" unicode="&#xe0;" horiz-adv-x="415" 
d="M0 94q0 27 10 50.5t27 43t40 34.5t50 24l98 34v170q0 20 -11 29t-23 9q-15 0 -24.5 -11.5t-15.5 -31.5t-8.5 -47t-2.5 -57l-118 71q14 27 36 45t47.5 28.5t54 15t56.5 4.5t56.5 -8.5t51 -31t37 -61.5t14.5 -100v-213l30 -91h-180v85q-22 -37 -50 -63.5t-72 -26.5
q-16 0 -34 5t-33.5 16t-25.5 30.5t-10 47.5zM184 73q12 0 22.5 8.5t18.5 18.5v165q-19 -8 -33 -22t-23.5 -32t-14 -38t-4.5 -40q0 -7 1.5 -17.5t5 -20t10.5 -16t17 -6.5zM179 690q13 -39 24 -69q5 -13 9 -26t8 -23t6.5 -16.5t2.5 -7.5h-15l-175 142h140z" />
    <glyph glyph-name="aacute" unicode="&#xe1;" horiz-adv-x="415" 
d="M0 94q0 27 10 50.5t27 43t40 34.5t50 24l98 34v170q0 20 -11 29t-23 9q-15 0 -24.5 -11.5t-15.5 -31.5t-8.5 -47t-2.5 -57l-118 71q14 27 36 45t47.5 28.5t54 15t56.5 4.5t56.5 -8.5t51 -31t37 -61.5t14.5 -100v-213l30 -91h-180v85q-22 -37 -50 -63.5t-72 -26.5
q-16 0 -34 5t-33.5 16t-25.5 30.5t-10 47.5zM184 73q12 0 22.5 8.5t18.5 18.5v165q-19 -8 -33 -22t-23.5 -32t-14 -38t-4.5 -40q0 -7 1.5 -17.5t5 -20t10.5 -16t17 -6.5zM214.01 690q-12.999 -39 -23.998 -69q-5 -13 -9 -26t-7.99902 -23q-4 -10 -6.5 -16.5t-2.5 -7.5
h14.999l174.989 142h-139.991z" />
    <glyph glyph-name="acircumflex" unicode="&#xe2;" horiz-adv-x="415" 
d="M0 94q0 27 10 50.5t27 43t40 34.5t50 24l98 34v170q0 20 -11 29t-23 9q-15 0 -24.5 -11.5t-15.5 -31.5t-8.5 -47t-2.5 -57l-118 71q14 27 36 45t47.5 28.5t54 15t56.5 4.5t56.5 -8.5t51 -31t37 -61.5t14.5 -100v-213l30 -91h-180v85q-22 -37 -50 -63.5t-72 -26.5
q-16 0 -34 5t-33.5 16t-25.5 30.5t-10 47.5zM184 73q12 0 22.5 8.5t18.5 18.5v165q-19 -8 -33 -22t-23.5 -32t-14 -38t-4.5 -40q0 -7 1.5 -17.5t5 -20t10.5 -16t17 -6.5zM81 560.046h15l108 50.9961l107 -50.9961h15l-122 125.992z" />
    <glyph glyph-name="atilde" unicode="&#xe3;" horiz-adv-x="415" 
d="M0 94q0 27 10 50.5t27 43t40 34.5t50 24l98 34v170q0 20 -11 29t-23 9q-15 0 -24.5 -11.5t-15.5 -31.5t-8.5 -47t-2.5 -57l-118 71q14 27 36 45t47.5 28.5t54 15t56.5 4.5t56.5 -8.5t51 -31t37 -61.5t14.5 -100v-213l30 -91h-180v85q-22 -37 -50 -63.5t-72 -26.5
q-16 0 -34 5t-33.5 16t-25.5 30.5t-10 47.5zM184 73q12 0 22.5 8.5t18.5 18.5v165q-19 -8 -33 -22t-23.5 -32t-14 -38t-4.5 -40q0 -7 1.5 -17.5t5 -20t10.5 -16t17 -6.5zM223 667q11 -9 25.5 -14.5t27.5 -5.5q12 0 21.5 5.5t13.5 18.5h15q0 -13 -8 -26.5t-21 -24.5
t-29 -17.5t-33 -6.5q-22 0 -39 13q-12 10 -28.5 14.5t-31.5 4.5q-17 0 -28.5 -5.5t-11.5 -16.5h-15q0 15 8 29t20.5 25.5t29 18t33.5 6.5q27 0 51 -18z" />
    <glyph glyph-name="adieresis" unicode="&#xe4;" horiz-adv-x="415" 
d="M0 94q0 27 10 50.5t27 43t40 34.5t50 24l98 34v170q0 20 -11 29t-23 9q-15 0 -24.5 -11.5t-15.5 -31.5t-8.5 -47t-2.5 -57l-118 71q14 27 36 45t47.5 28.5t54 15t56.5 4.5t56.5 -8.5t51 -31t37 -61.5t14.5 -100v-213l30 -91h-180v85q-22 -37 -50 -63.5t-72 -26.5
q-16 0 -34 5t-33.5 16t-25.5 30.5t-10 47.5zM184 73q12 0 22.5 8.5t18.5 18.5v165q-19 -8 -33 -22t-23.5 -32t-14 -38t-4.5 -40q0 -7 1.5 -17.5t5 -20t10.5 -16t17 -6.5zM279 670q17 0 27 -10t10 -27t-10 -27.5t-27 -10.5t-27.5 10.5t-10.5 27.5t10.5 27t27.5 10zM90 633
q0 17 10.5 27t27.5 10t27 -10t10 -27t-10 -27.5t-27 -10.5t-27.5 10.5t-10.5 27.5z" />
    <glyph glyph-name="aring" unicode="&#xe5;" horiz-adv-x="415" 
d="M0 94q0 27 10 50.5t27 43t40 34.5t50 24l98 34v170q0 20 -11 29t-23 9q-15 0 -24.5 -11.5t-15.5 -31.5t-8.5 -47t-2.5 -57l-118 71q14 27 36 45t47.5 28.5t54 15t56.5 4.5t56.5 -8.5t51 -31t37 -61.5t14.5 -100v-213l30 -91h-180v85q-22 -37 -50 -63.5t-72 -26.5
q-16 0 -34 5t-33.5 16t-25.5 30.5t-10 47.5zM184 73q12 0 22.5 8.5t18.5 18.5v165q-19 -8 -33 -22t-23.5 -32t-14 -38t-4.5 -40q0 -7 1.5 -17.5t5 -20t10.5 -16t17 -6.5zM205 690q33 0 53.5 -18t20.5 -47t-20.5 -47.5t-53.5 -18.5q-35 0 -55.5 18.5t-20.5 47.5t20.5 47
t55.5 18zM144 625q0 -23 16.5 -37t43.5 -14t43.5 14t16.5 37q0 22 -16.5 36t-43.5 14t-43.5 -14t-16.5 -36z" />
    <glyph glyph-name="ae" unicode="&#xe6;" horiz-adv-x="609" 
d="M0 94q0 27 10 50.5t27 43t40 34.5t50 24l98 34v170q0 20 -11 29t-23 9q-15 0 -24.5 -11.5t-15.5 -31.5t-8.5 -47t-2.5 -57l-118 71q14 27 36 45t47.5 28.5t54 15t56.5 4.5q24 0 48.5 -6t45.5 -22q41 28 102 28q92 0 140 -65t48 -190h-225q0 -26 4 -61t16 -66.5t34 -53
t58 -21.5q26 0 57.5 13t55.5 49v-16q-13 -29 -36.5 -48t-50 -30.5t-53.5 -16t-49 -4.5q-47 0 -90 28.5t-69 86.5h-1q-11 -18 -27.5 -38.5t-36 -37.5t-41 -28t-43.5 -11q-16 0 -34 5t-33.5 16t-25.5 30.5t-10 47.5zM450 266q0 41 -1 81t-4.5 71.5t-11 51.5t-21.5 20
q-13 0 -20.5 -20t-11.5 -52t-4.5 -72t-0.5 -80h75zM184 73q12 0 22.5 8.5t18.5 18.5v165q-19 -8 -33 -22t-23.5 -32t-14 -38t-4.5 -40q0 -7 1.5 -17.5t5 -20t10.5 -16t17 -6.5z" />
    <glyph glyph-name="ccedilla" unicode="&#xe7;" horiz-adv-x="382" 
d="M206 505q57 0 98 -23t64 -68l-117 -71q-1 30 -3.5 57t-7.5 47t-14 31.5t-22 11.5q-18 0 -27.5 -21.5t-14 -55.5t-5 -76t-0.5 -83q0 -26 4 -61.5t16 -67.5t33.5 -54.5t57.5 -22.5q22 0 49 10t50 36h15q-13 -29 -36.5 -48t-50 -30.5t-53.5 -16t-49 -4.5q-35 0 -68.5 15.5
t-59.5 47.5t-42 80.5t-16 114.5q0 125 50 188.5t149 63.5zM91 -209v15q22 -22 56 -22q23 0 41 14.5t18 47.5q0 9 -2 21t-7 22.5t-13.5 18t-22.5 7.5q-10 0 -22.5 -5t-28.5 -16l40 106h15l-29 -76q11 11 24.5 15.5t28.5 4.5t30.5 -5.5t27.5 -16t19.5 -26.5t7.5 -37
q0 -24 -9.5 -42t-24.5 -30t-34.5 -18t-39.5 -6q-21 0 -41 7t-34 21z" />
    <glyph glyph-name="egrave" unicode="&#xe8;" horiz-adv-x="392" 
d="M195 505q92 0 140 -65t48 -190h-225q0 -25 4.5 -60t16.5 -66.5t33.5 -53.5t55.5 -22q20 0 43.5 9t46.5 33h15q-13 -29 -36 -47.5t-48.5 -29t-52 -14.5t-47.5 -4q-34 0 -66.5 15.5t-58 47.5t-41 80.5t-15.5 114.5q0 125 47 188.5t140 63.5zM233 266q0 41 -1 81t-4.5 71.5
t-11 51.5t-21.5 20q-13 0 -20.5 -20t-11.5 -52t-4.5 -72t-0.5 -80h75zM246 690q13 -39 24 -69q5 -13 9 -26t8 -23t6.5 -16.5t2.5 -7.5h-15l-175 142h140z" />
    <glyph glyph-name="eacute" unicode="&#xe9;" horiz-adv-x="392" 
d="M195 505q92 0 140 -65t48 -190h-225q0 -25 4.5 -60t16.5 -66.5t33.5 -53.5t55.5 -22q20 0 43.5 9t46.5 33h15q-13 -29 -36 -47.5t-48.5 -29t-52 -14.5t-47.5 -4q-34 0 -66.5 15.5t-58 47.5t-41 80.5t-15.5 114.5q0 125 47 188.5t140 63.5zM233 266q0 41 -1 81t-4.5 71.5
t-11 51.5t-21.5 20q-13 0 -20.5 -20t-11.5 -52t-4.5 -72t-0.5 -80h75zM186.01 690q-12.999 -39 -23.998 -69q-5 -13 -9 -26t-7.99902 -23q-4 -10 -6.5 -16.5t-2.5 -7.5h14.999l174.989 142h-139.991z" />
    <glyph glyph-name="ecircumflex" unicode="&#xea;" horiz-adv-x="392" 
d="M195 505q92 0 140 -65t48 -190h-225q0 -25 4.5 -60t16.5 -66.5t33.5 -53.5t55.5 -22q20 0 43.5 9t46.5 33h15q-13 -29 -36 -47.5t-48.5 -29t-52 -14.5t-47.5 -4q-34 0 -66.5 15.5t-58 47.5t-41 80.5t-15.5 114.5q0 125 47 188.5t140 63.5zM233 266q0 41 -1 81t-4.5 71.5
t-11 51.5t-21.5 20q-13 0 -20.5 -20t-11.5 -52t-4.5 -72t-0.5 -80h75zM78 560.046h15l108 50.9961l107 -50.9961h15l-122 125.992z" />
    <glyph glyph-name="edieresis" unicode="&#xeb;" horiz-adv-x="392" 
d="M195 505q92 0 140 -65t48 -190h-225q0 -25 4.5 -60t16.5 -66.5t33.5 -53.5t55.5 -22q20 0 43.5 9t46.5 33h15q-13 -29 -36 -47.5t-48.5 -29t-52 -14.5t-47.5 -4q-34 0 -66.5 15.5t-58 47.5t-41 80.5t-15.5 114.5q0 125 47 188.5t140 63.5zM233 266q0 41 -1 81t-4.5 71.5
t-11 51.5t-21.5 20q-13 0 -20.5 -20t-11.5 -52t-4.5 -72t-0.5 -80h75zM276 640q17 0 27 -10t10 -27t-10 -27.5t-27 -10.5t-27.5 10.5t-10.5 27.5t10.5 27t27.5 10zM87 603q0 17 10.5 27t27.5 10t27 -10t10 -27t-10 -27.5t-27 -10.5t-27.5 10.5t-10.5 27.5z" />
    <glyph glyph-name="igrave" unicode="&#xec;" horiz-adv-x="233" 
d="M43 90v231l-24 74l174 105v-410l30 -90h-210zM141 690q13 -39 24 -69q5 -13 9 -26t8 -23t6.5 -16.5t2.5 -7.5h-15l-175 142h140z" />
    <glyph glyph-name="iacute" unicode="&#xed;" horiz-adv-x="233" 
d="M43 90v231l-24 74l174 105v-410l30 -90h-210zM71.0098 690q-12.999 -39 -23.998 -69q-5 -13 -9 -26t-7.99902 -23q-4 -10 -6.5 -16.5t-2.5 -7.5h14.999l174.989 142h-139.991z" />
    <glyph glyph-name="icircumflex" unicode="&#xee;" horiz-adv-x="233" 
d="M43 90v231l-24 74l174 105v-410l30 -90h-210zM-7 560.046h15l108 50.9961l107 -50.9961h15l-122 125.992z" />
    <glyph glyph-name="idieresis" unicode="&#xef;" horiz-adv-x="233" 
d="M43 90v231l-24 74l174 105v-410l30 -90h-210zM192 640q17 0 27 -10t10 -27t-10 -27.5t-27 -10.5t-27.5 10.5t-10.5 27.5t10.5 27t27.5 10zM3 603q0 17 10.5 27t27.5 10t27 -10t10 -27t-10 -27.5t-27 -10.5t-27.5 10.5t-10.5 27.5z" />
    <glyph glyph-name="eth" unicode="&#xf0;" horiz-adv-x="435" 
d="M8 249q0 63 13.5 111t34 80t45 48.5t47.5 16.5q26 0 51 -26.5t46 -62.5q-1 66 -6.5 117.5t-17.5 89.5l-103 -56l-7 14l105 57q-19 50 -50.5 73.5t-79.5 23.5v15q53 -1 102 -19.5t90 -58.5l96 52l7 -14l-91 -50q47 -52 76 -137t29 -209v-276l30 -38h-180v85
q-5 -12 -14 -27.5t-21.5 -29.5t-28.5 -23.5t-34 -9.5q-26 0 -51 16.5t-44.5 48.5t-31.5 79.5t-12 109.5zM245 411v-11q-11 8 -21 13t-19 5q-10 0 -19 -8t-15 -27.5t-9.5 -52t-3.5 -80.5q0 -89 10.5 -129t34.5 -40q15 0 42 19v277v34z" />
    <glyph glyph-name="ntilde" unicode="&#xf1;" horiz-adv-x="458" 
d="M13 0l30 90v231l-24 74l174 105v-80q20 34 50.5 59.5t64.5 25.5q24 0 44 -10.5t35 -34t23 -62t8 -94.5v-213l30 -91h-210l30 90v211q0 59 -10.5 84t-32.5 25q-14 0 -32 -9v-311l30 -90h-210zM250 667q11 -9 25.5 -14.5t27.5 -5.5q12 0 21.5 5.5t13.5 18.5h15
q0 -13 -8 -26.5t-21 -24.5t-29 -17.5t-33 -6.5q-22 0 -39 13q-12 10 -28.5 14.5t-31.5 4.5q-17 0 -28.5 -5.5t-11.5 -16.5h-15q0 15 8 29t20.5 25.5t29 18t33.5 6.5q27 0 51 -18z" />
    <glyph glyph-name="ograve" unicode="&#xf2;" 
d="M215 505q47 0 85 -18t65 -51.5t42 -80.5t15 -105t-15 -105t-42 -80.5t-65 -51.5t-85 -18t-85 18t-65 51.5t-42 80.5t-15 105t15 105t42 80.5t65 51.5t85 18zM160 233q17 -51 32.5 -92t31 -69t31 -41t32.5 -7q18 6 24 25.5t2 51t-15.5 74.5t-28.5 94q-16 50 -31.5 90.5
t-31 68t-31.5 40.5t-34 7q-17 -6 -22.5 -25.5t-1.5 -50.5t15.5 -73t27.5 -93zM220 690q13 -39 24 -69q5 -13 9 -26t8 -23t6.5 -16.5t2.5 -7.5h-15l-175 142h140z" />
    <glyph glyph-name="oacute" unicode="&#xf3;" 
d="M215 505q47 0 85 -18t65 -51.5t42 -80.5t15 -105t-15 -105t-42 -80.5t-65 -51.5t-85 -18t-85 18t-65 51.5t-42 80.5t-15 105t15 105t42 80.5t65 51.5t85 18zM160 233q17 -51 32.5 -92t31 -69t31 -41t32.5 -7q18 6 24 25.5t2 51t-15.5 74.5t-28.5 94q-16 50 -31.5 90.5
t-31 68t-31.5 40.5t-34 7q-17 -6 -22.5 -25.5t-1.5 -50.5t15.5 -73t27.5 -93zM200.01 690q-12.999 -39 -23.998 -69q-5 -13 -9 -26t-7.99902 -23q-4 -10 -6.5 -16.5t-2.5 -7.5h14.999l174.989 142h-139.991z" />
    <glyph glyph-name="ocircumflex" unicode="&#xf4;" 
d="M215 505q47 0 85 -18t65 -51.5t42 -80.5t15 -105t-15 -105t-42 -80.5t-65 -51.5t-85 -18t-85 18t-65 51.5t-42 80.5t-15 105t15 105t42 80.5t65 51.5t85 18zM160 233q17 -51 32.5 -92t31 -69t31 -41t32.5 -7q18 6 24 25.5t2 51t-15.5 74.5t-28.5 94q-16 50 -31.5 90.5
t-31 68t-31.5 40.5t-34 7q-17 -6 -22.5 -25.5t-1.5 -50.5t15.5 -73t27.5 -93zM93 560.046h15l108 50.9961l107 -50.9961h15l-122 125.992z" />
    <glyph glyph-name="otilde" unicode="&#xf5;" 
d="M215 505q47 0 85 -18t65 -51.5t42 -80.5t15 -105t-15 -105t-42 -80.5t-65 -51.5t-85 -18t-85 18t-65 51.5t-42 80.5t-15 105t15 105t42 80.5t65 51.5t85 18zM160 233q17 -51 32.5 -92t31 -69t31 -41t32.5 -7q18 6 24 25.5t2 51t-15.5 74.5t-28.5 94q-16 50 -31.5 90.5
t-31 68t-31.5 40.5t-34 7q-17 -6 -22.5 -25.5t-1.5 -50.5t15.5 -73t27.5 -93zM235 667q11 -9 25.5 -14.5t27.5 -5.5q12 0 21.5 5.5t13.5 18.5h15q0 -13 -8 -26.5t-21 -24.5t-29 -17.5t-33 -6.5q-22 0 -39 13q-12 10 -28.5 14.5t-31.5 4.5q-17 0 -28.5 -5.5t-11.5 -16.5h-15
q0 15 8 29t20.5 25.5t29 18t33.5 6.5q27 0 51 -18z" />
    <glyph glyph-name="odieresis" unicode="&#xf6;" 
d="M215 505q47 0 85 -18t65 -51.5t42 -80.5t15 -105t-15 -105t-42 -80.5t-65 -51.5t-85 -18t-85 18t-65 51.5t-42 80.5t-15 105t15 105t42 80.5t65 51.5t85 18zM160 233q17 -51 32.5 -92t31 -69t31 -41t32.5 -7q18 6 24 25.5t2 51t-15.5 74.5t-28.5 94q-16 50 -31.5 90.5
t-31 68t-31.5 40.5t-34 7q-17 -6 -22.5 -25.5t-1.5 -50.5t15.5 -73t27.5 -93zM291 640q17 0 27 -10t10 -27t-10 -27.5t-27 -10.5t-27.5 10.5t-10.5 27.5t10.5 27t27.5 10zM102 603q0 17 10.5 27t27.5 10t27 -10t10 -27t-10 -27.5t-27 -10.5t-27.5 10.5t-10.5 27.5z" />
    <glyph glyph-name="divide" unicode="&#xf7;" horiz-adv-x="342" 
d="M171 386q15 0 26 -11t11 -26t-11 -26t-26 -11t-26 11t-11 26t11 26t26 11zM134 149q0 15 11 26t26 11t26 -11t11 -26t-11 -26t-26 -11t-26 11t-11 26zM22 243v15h300v-15h-300z" />
    <glyph glyph-name="oslash" unicode="&#xf8;" 
d="M215 505q56 0 100 -26l10 21h17l-14 -30q45 -32 69.5 -88t24.5 -132q0 -58 -15 -105t-42 -80.5t-65 -51.5t-85 -18q-56 0 -99 26l-10 -21h-17l14 29q-45 32 -70 88.5t-25 132.5q0 58 15 105t42 80.5t65 51.5t85 18zM247 335q-26 72 -51.5 110.5t-54.5 29.5
q-17 -6 -22.5 -25.5t-1.5 -50.5t15.5 -73t27.5 -93q4 -13 8 -25t8 -23zM183 164q26 -72 51 -110.5t53 -29.5q18 6 24 25.5t2 51t-15.5 74.5t-28.5 94q-7 24 -15 45z" />
    <glyph glyph-name="ugrave" unicode="&#xf9;" horiz-adv-x="449" 
d="M184 500v-301q0 -59 10.5 -84t32.5 -25q14 0 32 9v222l-24 74l174 105v-410l30 -90h-180v82q-20 -33 -50.5 -57.5t-64.5 -24.5q-24 0 -44 10.5t-35 33.5t-23 61.5t-8 93.5v122l-24 74zM179 690q13 -39 24 -69q5 -13 9 -26t8 -23t6.5 -16.5t2.5 -7.5h-15l-175 142h140z
" />
    <glyph glyph-name="uacute" unicode="&#xfa;" horiz-adv-x="449" 
d="M184 500v-301q0 -59 10.5 -84t32.5 -25q14 0 32 9v222l-24 74l174 105v-410l30 -90h-180v82q-20 -33 -50.5 -57.5t-64.5 -24.5q-24 0 -44 10.5t-35 33.5t-23 61.5t-8 93.5v122l-24 74zM239.01 690q-12.999 -39 -23.998 -69q-5 -13 -9 -26t-7.99902 -23q-4 -10 -6.5 -16.5
t-2.5 -7.5h14.999l174.989 142h-139.991z" />
    <glyph glyph-name="ucircumflex" unicode="&#xfb;" horiz-adv-x="449" 
d="M184 500v-301q0 -59 10.5 -84t32.5 -25q14 0 32 9v222l-24 74l174 105v-410l30 -90h-180v82q-20 -33 -50.5 -57.5t-64.5 -24.5q-24 0 -44 10.5t-35 33.5t-23 61.5t-8 93.5v122l-24 74zM91 560.046h15l108 50.9961l107 -50.9961h15l-122 125.992z" />
    <glyph glyph-name="udieresis" unicode="&#xfc;" horiz-adv-x="449" 
d="M184 500v-301q0 -59 10.5 -84t32.5 -25q14 0 32 9v222l-24 74l174 105v-410l30 -90h-180v82q-20 -33 -50.5 -57.5t-64.5 -24.5q-24 0 -44 10.5t-35 33.5t-23 61.5t-8 93.5v122l-24 74zM289 640q17 0 27 -10t10 -27t-10 -27.5t-27 -10.5t-27.5 10.5t-10.5 27.5t10.5 27
t27.5 10zM100 603q0 17 10.5 27t27.5 10t27 -10t10 -27t-10 -27.5t-27 -10.5t-27.5 10.5t-10.5 27.5z" />
    <glyph glyph-name="yacute" unicode="&#xfd;" horiz-adv-x="359" 
d="M-13 500h212l-30 -90l80 -377l81 377l-13 90h75l-47 -90l-88 -410q-10 -49 -28.5 -93.5t-47 -79t-69 -55.5t-95.5 -22v150q33 0 69.5 4t69 15.5t56 31t30.5 49.5h-138l-87 410zM230.01 690q-12.999 -39 -23.998 -69q-5 -13 -9 -26t-7.99902 -23q-4 -10 -6.5 -16.5
t-2.5 -7.5h14.999l174.989 142h-139.991z" />
    <glyph glyph-name="thorn" unicode="&#xfe;" 
d="M7 -250l30 130v691l-24 74l174 105v-331q29 43 49.5 64.5t45.5 21.5q23 0 47.5 -16.5t45 -48.5t34 -80t13.5 -111q0 -62 -12 -109.5t-31.5 -79.5t-44.5 -48.5t-51 -16.5q-18 0 -33 6.5t-27.5 17t-21.5 23t-14 24.5v-196l30 -120h-210zM187 401v-302q24 -18 40 -18
q24 0 34.5 40.5t10.5 128.5q0 48 -3.5 80.5t-9.5 52t-14.5 27.5t-19.5 8q-8 0 -17.5 -4.5t-20.5 -12.5z" />
    <glyph glyph-name="ydieresis" unicode="&#xff;" horiz-adv-x="359" 
d="M-13 500h212l-30 -90l80 -377l81 377l-13 90h75l-47 -90l-88 -410q-10 -49 -28.5 -93.5t-47 -79t-69 -55.5t-95.5 -22v150q33 0 69.5 4t69 15.5t56 31t30.5 49.5h-138l-87 410zM276 640q17 0 27 -10t10 -27t-10 -27.5t-27 -10.5t-27.5 10.5t-10.5 27.5t10.5 27t27.5 10z
M87 603q0 17 10.5 27t27.5 10t27 -10t10 -27t-10 -27.5t-27 -10.5t-27.5 10.5t-10.5 27.5z" />
    <glyph glyph-name="Dcroat" unicode="&#x110;" horiz-adv-x="479" 
d="M212 358h40v-15h-40v-328q32 0 51 20t29 61t13 104t3 150t-3 150t-13 104t-29 61t-51 20v-327zM22 359h40v251l-30 90h180q132 0 194 -83.5t62 -263.5q0 -181 -63.5 -267t-192.5 -86h-180l30 90v254h-40v15z" />
    <glyph glyph-name="dcroat" unicode="&#x111;" horiz-adv-x="435" 
d="M8 249q0 63 13.5 111t34 80t45 48.5t47.5 16.5q26 0 51 -26.5t46 -62.5v155l-24 74l174 105v-660l30 -90h-180v85q-5 -12 -14 -27.5t-21.5 -29.5t-28.5 -23.5t-34 -9.5q-26 0 -51 16.5t-44.5 48.5t-31.5 79.5t-12 109.5zM158 250q0 -89 10.5 -129t34.5 -40q15 0 42 19
v300q-11 8 -21 13t-19 5q-10 0 -19 -8t-15 -27.5t-9.5 -52t-3.5 -80.5zM185 540h240v-15h-240v15z" />
    <glyph glyph-name="dotlessi" unicode="&#x131;" horiz-adv-x="233" 
d="M43 90v231l-24 74l174 105v-410l30 -90h-210z" />
    <glyph glyph-name="Lslash" unicode="&#x141;" horiz-adv-x="426" 
d="M67 90v520l-30 90h210l-30 -90v-594h85l124 74v-90h-389zM22 259h300v-15h-300v15z" />
    <glyph glyph-name="lslash" unicode="&#x142;" horiz-adv-x="273" 
d="M213 244v-154l30 -90h-210l30 90v154h-50v15h50v312l-24 74l174 105v-491h50v-15h-50z" />
    <glyph glyph-name="OE" unicode="&#x152;" horiz-adv-x="671" 
d="M223 700h415v-127l-180 108v-162t-1 -162h40l90 30v-75l-90 30h-40v-161t1 -161l197 118v-138h-378v1h-54q-49 0 -88.5 24t-67 69.5t-42 110.5t-14.5 146t14.5 146t42 110t67 69t88.5 24zM224 15q9 0 19.5 9.5t20 42.5t15.5 97.5t6 174.5t-6 177.5t-15.5 105t-20 50.5
t-19.5 13t-20 -13t-20.5 -50.5t-15.5 -105t-6 -177.5t6 -174.5t15.5 -97.5t20.5 -42.5t20 -9.5z" />
    <glyph glyph-name="oe" unicode="&#x153;" horiz-adv-x="692" 
d="M215 505q47 0 85 -18t65 -51.5t42 -80.5t15 -105t-15 -105t-42 -80.5t-65 -51.5t-85 -18t-85 18t-65 51.5t-42 80.5t-15 105t15 105t42 80.5t65 51.5t85 18zM160 233q17 -51 32.5 -92t31 -69t31 -41t32.5 -7q18 6 24 25.5t2 51t-15.5 74.5t-28.5 94q-16 50 -31.5 90.5
t-31 68t-31.5 40.5t-34 7q-17 -6 -22.5 -25.5t-1.5 -50.5t15.5 -73t27.5 -93zM495 505q92 0 140 -65t48 -190h-225q0 -25 4.5 -60t16.5 -66.5t33.5 -53.5t55.5 -22q20 0 43.5 9t46.5 33h15q-13 -29 -36 -47.5t-48.5 -29t-52 -14.5t-47.5 -4q-34 0 -66.5 15.5t-58 47.5
t-41 80.5t-15.5 114.5q0 125 47 188.5t140 63.5zM533 266q0 41 -1 81t-4.5 71.5t-11 51.5t-21.5 20q-13 0 -20.5 -20t-11.5 -52t-4.5 -72t-0.5 -80h75z" />
    <glyph glyph-name="Scaron" unicode="&#x160;" horiz-adv-x="385" 
d="M30 195l108 -180h38q9 0 19.5 5t19.5 14.5t15.5 24.5t6.5 35q0 18 -6.5 40t-22 52t-41 69.5t-63.5 92.5q-27 38 -44 67t-27.5 52.5t-14.5 42.5t-4 37q0 32 10.5 59.5t27.5 48.5t39.5 33t47.5 12h174l10 -195l-108 180h-38q-14 0 -24 -12.5t-10 -35.5q0 -32 22.5 -74
t70.5 -100l9 -11q39 -48 66 -85t43.5 -68t23.5 -58.5t7 -55.5q0 -45 -16 -79.5t-40.5 -58t-54.5 -35.5t-59 -12h-215zM58 876h15l108 -51l107 51h15l-122 -126z" />
    <glyph glyph-name="scaron" unicode="&#x161;" horiz-adv-x="374" 
d="M141 500h184v-195l-108 180h-38q-14 0 -24 -10.5t-10 -29.5q0 -16 8.5 -33t22.5 -34.5t31.5 -35t35.5 -34.5q23 -21 44.5 -42.5t38 -43.5t26.5 -45t10 -47q0 -27 -12.5 -51t-33 -41.5t-46.5 -27.5t-54 -10h-184l10 195l108 -180h28q23 0 33 16t10 36q0 14 -4.5 27.5
t-15.5 30t-28.5 36t-44.5 45.5q-32 31 -53.5 55.5t-34.5 44.5t-18.5 37.5t-5.5 34.5q0 25 10.5 47.5t27.5 39t39.5 26t47.5 9.5zM44 686h15l108 -51l107 51h15l-122 -126z" />
    <glyph glyph-name="Ydieresis" unicode="&#x178;" horiz-adv-x="443" 
d="M0 700h223l-30 -90l95 -273l94 273l-13 90h79l-47 -90l-104 -300v-220l30 -90h-210l30 90v220zM339 826q17 0 27 -10t10 -27t-10 -27.5t-27 -10.5t-27.5 10.5t-10.5 27.5t10.5 27t27.5 10zM150 789q0 17 10.5 27t27.5 10t27 -10t10 -27t-10 -27.5t-27 -10.5t-27.5 10.5
t-10.5 27.5z" />
    <glyph glyph-name="Zcaron" unicode="&#x17d;" horiz-adv-x="395" 
d="M227 685h-96l-126 -75l10 90h375l-222 -685h96l126 75v-90h-385zM80 876h15l108 -51l107 51h15l-122 -126z" />
    <glyph glyph-name="zcaron" unicode="&#x17e;" horiz-adv-x="398" 
d="M13 0l206 485h-81l-125 -75l10 90h365l-206 -485h80l126 75v-90h-375zM48 686h15l108 -51l107 51h15l-122 -126z" />
    <glyph glyph-name="florin" unicode="&#x192;" horiz-adv-x="247" 
d="M-5 -250q-114 0 -162 86l117 71q0 -29 2.5 -55t8 -45.5t14.5 -30.5t22 -11t20 11t10.5 30t4 43t0.5 51v565h-40v15h40q1 70 15 121t39 84t59 49t75 16q88 0 137 -62l-102 -62q-1 22 -3.5 41.5t-6.5 34.5t-10 24t-15 9q-15 0 -23 -28t-11 -67.5t-3.5 -83.5t-0.5 -76h75
v-15h-75v-565q0 -18 -8 -43.5t-26 -49.5t-46.5 -40.5t-69.5 -16.5h-37z" />
    <glyph glyph-name="circumflex" unicode="&#x2c6;" horiz-adv-x="287" 
d="M22 620.046h15l108 50.9961l107 -50.9961h15l-122 125.992z" />
    <glyph glyph-name="caron" unicode="&#x2c7;" horiz-adv-x="287" 
d="M22 746h15l108 -51l107 51h15l-122 -126z" />
    <glyph glyph-name="breve" unicode="&#x2d8;" horiz-adv-x="287" 
d="M22 746h15q0 -6 7 -14.5t20.5 -16.5t34 -14t46.5 -6q25 0 45 5t33.5 13t21 17t7.5 16h15q0 -52 -33.5 -83.5t-88.5 -31.5q-56 0 -89.5 31.5t-33.5 83.5z" />
    <glyph glyph-name="dotaccent" unicode="&#x2d9;" horiz-adv-x="117" 
d="M22 664q0 17 10.5 27t27.5 10t27 -10t10 -27t-10 -27.5t-27 -10.5t-27.5 10.5t-10.5 27.5z" />
    <glyph glyph-name="ring" unicode="&#x2da;" horiz-adv-x="192" 
d="M98 750q33 0 53.5 -18t20.5 -47t-20.5 -47.5t-53.5 -18.5q-35 0 -55.5 18.5t-20.5 47.5t20.5 47t55.5 18zM37 685q0 -23 16.5 -37t43.5 -14t43.5 14t16.5 37q0 22 -16.5 36t-43.5 14t-43.5 -14t-16.5 -36z" />
    <glyph glyph-name="ogonek" unicode="&#x2db;" horiz-adv-x="197" 
d="M92 0h15q-20 -25 -25 -49t0.5 -43t18 -31t27.5 -12q20 0 34 21h15q-2 -45 -24 -65t-49 -20q-25 0 -48 16t-30.5 43t6 63t60.5 77z" />
    <glyph glyph-name="tilde" unicode="&#x2dc;" horiz-adv-x="287" 
d="M164 727q11 -9 25.5 -14.5t27.5 -5.5q12 0 21.5 5.5t13.5 18.5h15q0 -13 -8 -26.5t-21 -24.5t-29 -17.5t-33 -6.5q-22 0 -39 13q-12 10 -28.5 14.5t-31.5 4.5q-17 0 -28.5 -5.5t-11.5 -16.5h-15q0 15 8 29t20.5 25.5t29 18t33.5 6.5q27 0 51 -18z" />
    <glyph glyph-name="hungarumlaut" unicode="&#x2dd;" horiz-adv-x="372" 
d="M172 680q0 -36 -10.5 -63t-28 -44.5t-40 -26t-46.5 -8.5v15q24 0 46 15.5t36 42.5q-13 -6 -32 -6q-34 0 -54.5 20.5t-20.5 54.5t20.5 54.5t54.5 20.5t54.5 -20.5t20.5 -54.5zM352 680q0 -36 -10.5 -63t-28 -44.5t-40 -26t-46.5 -8.5v15q24 0 46 15.5t36 42.5
q-13 -6 -32 -6q-34 0 -54.5 20.5t-20.5 54.5t20.5 54.5t54.5 20.5t54.5 -20.5t20.5 -54.5z" />
    <glyph glyph-name="uni03BC" unicode="&#x3bc;" horiz-adv-x="449" 
d="M184 500v-301q0 -59 10.5 -84t32.5 -25q14 0 32 9v222l-24 74l174 105v-410l30 -90h-180v82q-20 -33 -50.5 -57.5t-64.5 -24.5q-32 0 -56.5 18t-38.5 60q21 -77 63 -133t102 -107l-150 -90q-23 103 -26.5 207t-3.5 218q0 -5 0.5 -9t0.5 -8q0 10 -0.5 21t-0.5 22v122
l-24 74z" />
    <glyph glyph-name="endash" unicode="&#x2013;" horiz-adv-x="342" 
d="M22 259h300v-15h-300v15z" />
    <glyph glyph-name="emdash" unicode="&#x2014;" horiz-adv-x="447" 
d="M22 259h405v-15h-405v15z" />
    <glyph glyph-name="quoteleft" unicode="&#x2018;" horiz-adv-x="192" 
d="M22 568q0 36 10.5 63t28 44.5t40 26t46.5 8.5v-15q-24 0 -46 -15.5t-36 -42.5q14 6 32 6q34 0 54.5 -20.5t20.5 -54.5t-20.5 -54.5t-54.5 -20.5t-54.5 20.5t-20.5 54.5z" />
    <glyph glyph-name="quoteright" unicode="&#x2019;" horiz-adv-x="192" 
d="M172 630q0 -36 -10.5 -63t-28 -44.5t-40 -26t-46.5 -8.5v15q24 0 46 15.5t36 42.5q-13 -6 -32 -6q-34 0 -54.5 20.5t-20.5 54.5t20.5 54.5t54.5 20.5t54.5 -20.5t20.5 -54.5z" />
    <glyph glyph-name="quotesinglbase" unicode="&#x201a;" horiz-adv-x="192" 
d="M172 75q0 -36 -10.5 -63t-28 -44.5t-40 -26t-46.5 -8.5v15q24 0 46 15.5t36 42.5q-13 -6 -32 -6q-34 0 -54.5 20.5t-20.5 54.5t20.5 54.5t54.5 20.5t54.5 -20.5t20.5 -54.5z" />
    <glyph glyph-name="quotedblleft" unicode="&#x201c;" horiz-adv-x="357" 
d="M22.0107 568.005q0 35.9971 10.499 62.9961q10.499 26.998 27.998 44.4971t39.998 25.998q22.498 8.5 46.4971 8.5v-14.999q-23.999 0 -45.9971 -15.499q-21.999 -15.499 -35.998 -42.498q12.999 6 31.998 6q33.998 0 54.4971 -20.499q20.498 -20.498 20.498 -54.4961
t-20.498 -54.4971q-20.499 -20.499 -54.4971 -20.499t-54.4971 20.499q-20.498 20.499 -20.498 54.4971zM187.011 568.005q0 35.9971 10.499 62.9961q10.499 26.998 27.998 44.4971t39.998 25.998q22.498 8.5 46.4971 8.5v-14.999q-23.999 0 -45.9971 -15.499
q-21.999 -15.499 -35.998 -42.498q12.999 6 31.998 6q33.998 0 54.4971 -20.499q20.498 -20.498 20.498 -54.4961t-20.498 -54.4971q-20.499 -20.499 -54.4971 -20.499t-54.4971 20.499q-20.498 20.499 -20.498 54.4971z" />
    <glyph glyph-name="quotedblright" unicode="&#x201d;" horiz-adv-x="357" 
d="M337 630q0 -36 -10.5 -63t-28 -44.5t-40 -26t-46.5 -8.5v15q24 0 46 15.5t36 42.5q-13 -6 -32 -6q-34 0 -54.5 20.5t-20.5 54.5t20.5 54.5t54.5 20.5t54.5 -20.5t20.5 -54.5zM172 630q0 -36 -10.5 -63t-28 -44.5t-40 -26t-46.5 -8.5v15q24 0 46 15.5t36 42.5
q-13 -6 -32 -6q-34 0 -54.5 20.5t-20.5 54.5t20.5 54.5t54.5 20.5t54.5 -20.5t20.5 -54.5z" />
    <glyph glyph-name="quotedblbase" unicode="&#x201e;" horiz-adv-x="357" 
d="M337 75q0 -36 -10.5 -63t-28 -44.5t-40 -26t-46.5 -8.5v15q24 0 46 15.5t36 42.5q-13 -6 -32 -6q-34 0 -54.5 20.5t-20.5 54.5t20.5 54.5t54.5 20.5t54.5 -20.5t20.5 -54.5zM172 75q0 -36 -10.5 -63t-28 -44.5t-40 -26t-46.5 -8.5v15q24 0 46 15.5t36 42.5q-13 -6 -32 -6
q-34 0 -54.5 20.5t-20.5 54.5t20.5 54.5t54.5 20.5t54.5 -20.5t20.5 -54.5z" />
    <glyph glyph-name="dagger" unicode="&#x2020;" horiz-adv-x="417" 
d="M112 506h90v104l-30 90h75l-30 -90v-104h90l90 30v-75l-90 30h-90v-491h-15v491h-90l-88 -37l-2 82z" />
    <glyph glyph-name="daggerdbl" unicode="&#x2021;" horiz-adv-x="417" 
d="M112 259h90v232h-90l-88 -37l-2 82l90 -30h90v104l-30 90h75l-30 -90v-104h90l90 30v-75l-90 30h-90v-232h90l90 30v-75l-90 30h-90v-154l30 -90h-75l30 90v154h-90l-88 -37l-2 82z" />
    <glyph glyph-name="bullet" unicode="&#x2022;" horiz-adv-x="231" 
d="M22 350q0 43 26 69t69 26q42 0 68 -26t26 -69t-26 -69t-68 -26q-43 0 -69 26t-26 69z" />
    <glyph glyph-name="ellipsis" unicode="&#x2026;" horiz-adv-x="578" 
d="M22 70q0 34 20.5 54.5t54.5 20.5t54.5 -20.5t20.5 -54.5t-20.5 -54.5t-54.5 -20.5t-54.5 20.5t-20.5 54.5zM215 70q0 34 20.5 54.5t54.5 20.5t54.5 -20.5t20.5 -54.5t-20.5 -54.5t-54.5 -20.5t-54.5 20.5t-20.5 54.5zM408 70q0 34 20.5 54.5t54.5 20.5t54.5 -20.5
t20.5 -54.5t-20.5 -54.5t-54.5 -20.5t-54.5 20.5t-20.5 54.5z" />
    <glyph glyph-name="perthousand" unicode="&#x2030;" horiz-adv-x="737" 
d="M254 175q0 81 28.5 127.5t77.5 46.5q50 0 78.5 -46.5t28.5 -128.5q0 -81 -28.5 -127.5t-78.5 -46.5q-49 0 -77.5 46.5t-28.5 128.5zM610 349q50 0 78.5 -46.5t28.5 -128.5q0 -81 -28.5 -127.5t-78.5 -46.5q-49 0 -77.5 46.5t-28.5 128.5q0 81 28.5 127.5t77.5 46.5z
M128 700q50 0 78.5 -46.5t28.5 -128.5q0 -81 -28.5 -127.5t-78.5 -46.5q-49 0 -77.5 46.5t-28.5 128.5q0 81 28.5 127.5t77.5 46.5zM361 7q5 0 10 4.5t9.5 21t7.5 49t3 87.5t-3 89t-7.5 52.5t-9.5 25t-10 6.5t-10.5 -6.5t-10 -25t-7.5 -52.5t-3 -89t3 -87.5t7.5 -49t10 -21
t10.5 -4.5zM98 520q0 -55 3 -87.5t7.5 -49t10 -21t10.5 -4.5t10 4.5t9.5 21t7.5 49t3 87.5t-3 89t-7.5 52.5t-9.5 25t-10 6.5t-10.5 -6.5t-10 -25t-7.5 -52.5t-3 -89zM580 169q0 -55 3 -87.5t7.5 -49t10 -21t10.5 -4.5t10 4.5t9.5 21t7.5 49t3 87.5t-3 89t-7.5 52.5t-9.5 25
t-10 6.5t-10.5 -6.5t-10 -25t-7.5 -52.5t-3 -89zM52 0l368 700h17l-368 -700h-17z" />
    <glyph glyph-name="guilsinglleft" unicode="&#x2039;" horiz-adv-x="174" 
d="M22 250l117 195h15l-57 -195l57 -195h-15z" />
    <glyph glyph-name="guilsinglright" unicode="&#x203a;" horiz-adv-x="174" 
d="M22 55l57 195l-57 195h15l117 -195l-117 -195h-15z" />
    <glyph glyph-name="fraction" unicode="&#x2044;" horiz-adv-x="455" 
d="M418 700h17l-396 -710h-17z" />
    <glyph glyph-name="Euro" unicode="&#x20ac;" horiz-adv-x="471" 
d="M11 329h43v25v20h-43v15h44q3 74 19 132.5t43 99.5t65 62.5t84 21.5h1q65 0 114.5 -35t85.5 -109l-148 -56l10 74q-11 48 -28 79.5t-34 31.5q-9 0 -19 -11.5t-19 -44t-15.5 -91.5t-8.5 -154h106v-15h-106v-33v-12h106v-15h-106q1 -102 7.5 -161t15.5 -90t19.5 -39.5
t19.5 -8.5q17 0 34 31t28 77l-10 72l148 -56q-36 -72 -85.5 -105.5t-114.5 -33.5h-1q-46 0 -83.5 21.5t-64.5 62t-43.5 99t-19.5 131.5h-44v15z" />
    <glyph glyph-name="trademark" unicode="&#x2122;" horiz-adv-x="298" 
d="M115 700h68l20 -114l18 114h69l-9 -28v-164l9 -28h-54v96l-16 -96h-35l-16 96v-96h-54l10 28v164zM8 700h103v-44l-28 10h-1v-158l9 -28h-63l9 28v158h-1l-28 -10v44z" />
    <glyph glyph-name="minus" unicode="&#x2212;" horiz-adv-x="342" 
d="M22 259h300v-15h-300v15z" />
    <glyph glyph-name="infinity" unicode="&#x221e;" horiz-adv-x="397" 
d="M22 255q0 17 7.5 33.5t20.5 29.5t31 20.5t39 7.5q28 0 52.5 -13t42.5 -31q11 22 29.5 36.5t47.5 14.5q21 0 37 -8.5t26.5 -22.5t16 -31.5t5.5 -35.5q0 -19 -7.5 -37t-21 -31.5t-32 -22t-39.5 -8.5q-32 0 -58 16.5t-45 39.5q-13 -23 -29.5 -35.5t-43.5 -12.5q-20 0 -35 8
t-24.5 21t-14.5 29.5t-5 32.5zM227 290l15 -17q26 -30 49 -42t40 -12q20 0 29.5 12.5t4 28t-27.5 28t-66 12.5q-11 0 -22.5 -2.5t-21.5 -7.5zM166 222l-11 15q-16 22 -35.5 38t-40.5 16q-33 0 -42 -13.5t-1 -29.5t29 -29.5t48 -13.5q28 0 53 17z" />
    <glyph glyph-name="notequal" unicode="&#x2260;" horiz-adv-x="342" 
d="M141 164l-79 -174h-17l79 174h-102v15h109l66 145h-175v15h181l78 171h17l-78 -171h102v-15h-108l-66 -145h174v-15h-181z" />
    <glyph glyph-name="lessequal" unicode="&#x2264;" horiz-adv-x="422" 
d="M24 334v21l375 225v-18l-362 -217l362 -218v-18zM22 4v15h380v-15h-380z" />
    <glyph glyph-name="greaterequal" unicode="&#x2265;" horiz-adv-x="417" 
d="M385 345l-363 217v18l375 -225v-21l-375 -225v18zM30 4v15h360v-15h-360z" />
    <glyph glyph-name="fi" unicode="&#xfb01;" horiz-adv-x="465" 
d="M10 480h40v20q0 65 13.5 112t38 78t59.5 45.5t77 14.5q88 0 137 -62l-102 -62q-1 22 -3.5 41.5t-6.5 34.5t-10 24t-15 9q-16 0 -24 -27t-11 -64.5t-3 -77.5v-66v-20h75l150 90v-480l30 -90h-210l30 90v375h-75v-375l30 -90h-210l30 90v375h-40v15z" />
    <glyph glyph-name="fl" unicode="&#xfb02;" horiz-adv-x="465" 
d="M10 480h40v20q0 65 13.5 112t38 78t59.5 45.5t77 14.5q72 0 118 -42l69 42v-660l30 -90h-210l30 90v375h-75v-375l30 -90h-210l30 90v375h-40v15zM275 480v146q-1 22 -3.5 41.5t-7 34.5t-11 24t-15.5 9q-16 0 -24 -27t-11 -64.5t-3 -77.5v-66v-20h75z" />
    </font>
</defs>
</svg>
